<svg xmlns="http://www.w3.org/2000/svg" width="512" height="512" viewBox="0 0 512 512" version="1.1"><path d="M 23.467 43.227 C 20.668 45.125, 17.770 48.181, 16.570 50.500 C 14.501 54.499, 14.500 54.551, 14.242 246.474 L 13.985 438.449 16.503 443.596 C 18.031 446.719, 20.517 449.780, 22.827 451.380 L 26.633 454.018 246.263 454.004 C 398.413 453.995, 466.754 453.666, 468.696 452.932 C 472.688 451.424, 476.951 447.151, 479.104 442.500 C 480.884 438.656, 480.957 431.733, 480.978 264.588 L 481 90.676 478.473 86.364 C 476.914 83.703, 474.139 80.990, 471.223 79.277 L 466.500 76.500 433.500 76.180 C 412.182 75.973, 399.526 76.230, 397.750 76.905 C 394.637 78.088, 394.116 80.973, 396.571 83.429 C 397.938 84.795, 402.554 85, 431.995 85 L 465.847 85 468.894 87.564 C 473.151 91.146, 473.988 95.279, 473.994 112.750 L 474 128 248 128 L 22 128 22 92.950 C 22 54.930, 22.062 54.456, 27.615 50.088 C 30.254 48.012, 30.710 48, 106.478 48 L 182.685 48 187.093 50.309 C 190.522 52.106, 193.309 55.156, 199.654 64.059 C 208.381 76.303, 213.690 81.061, 221 83.189 C 224.426 84.187, 236.640 84.500, 272.166 84.500 C 297.832 84.500, 319.058 84.274, 319.335 83.998 C 319.611 83.722, 320.146 82.266, 320.523 80.763 C 321.108 78.434, 320.822 77.883, 318.586 77.033 C 316.985 76.424, 297.556 76.014, 268.686 75.981 C 223.988 75.929, 221.237 75.822, 218.271 74.019 C 214.700 71.847, 207.807 63.503, 205.409 58.448 C 202.993 53.358, 196.394 46.316, 191.151 43.234 L 186.500 40.500 107.398 40.227 L 28.295 39.954 23.467 43.227 M 333.250 77.003 C 330.633 78.088, 330.308 81.165, 332.571 83.429 C 333.900 84.757, 337.344 84.998, 354.821 84.986 C 366.195 84.979, 376.474 84.711, 377.665 84.392 C 380.141 83.728, 381.677 79.278, 380.007 77.605 C 378.614 76.209, 336.476 75.667, 333.250 77.003 M 22 286.032 C 22 451.180, 21.602 440.958, 28.190 444.974 C 31.483 446.982, 32.615 446.993, 247.800 446.996 C 484.139 447, 467.451 447.425, 471.602 441.301 C 473.442 438.585, 473.508 433.918, 473.766 287.250 L 474.032 136 248.016 136 L 22 136 22 286.032 M 213.355 166.039 C 202.908 168.107, 193.238 175.743, 188.279 185.840 C 185.613 191.269, 185.486 192.220, 185.155 209.155 L 184.809 226.809 167.155 227.155 C 150.217 227.486, 149.270 227.613, 143.836 230.281 C 136.298 233.983, 130.365 240.080, 126.595 248 L 123.500 254.500 123.171 286 C 122.825 319.133, 123.403 325.949, 127.187 333.367 C 130.498 339.856, 137.473 346.485, 144.266 349.598 C 150.210 352.323, 151.298 352.473, 167.655 352.825 L 184.809 353.194 185.183 370.847 C 185.540 387.711, 185.680 388.754, 188.323 394.190 C 191.881 401.510, 200.188 409.178, 207.541 411.929 C 212.743 413.876, 215.134 414, 247.356 414 C 286.476 414, 288.621 413.685, 297.266 406.659 C 303.677 401.449, 308.333 393.945, 309.854 386.371 C 310.484 383.234, 311 374.487, 311 366.934 L 311 353.202 327.750 352.736 C 336.962 352.480, 346.155 351.748, 348.177 351.109 C 353.885 349.304, 361.070 343.994, 365.238 338.500 C 371.711 329.967, 372 327.868, 372 289.356 C 372 257.134, 371.876 254.743, 369.929 249.541 C 367.178 242.188, 359.510 233.881, 352.190 230.323 C 346.754 227.680, 345.711 227.540, 328.847 227.183 L 311.194 226.809 310.825 209.655 C 310.473 193.298, 310.323 192.210, 307.598 186.266 C 302.876 175.962, 293.486 168.515, 282.201 166.123 C 276.062 164.822, 219.851 164.754, 213.355 166.039 M 210.885 174.380 C 203.575 176.992, 198.231 182.029, 194.832 189.512 C 192.845 193.886, 192.518 196.500, 192.181 210.733 L 191.795 226.965 217.148 227.233 L 242.500 227.500 242.500 230.500 L 242.500 233.500 197.500 234 C 153.159 234.493, 152.427 234.534, 147.500 236.804 C 141.447 239.593, 137.695 243.023, 134.161 249 L 131.500 253.500 131.201 287.844 C 130.858 327.236, 131.095 328.828, 138.451 336.396 C 145.926 344.088, 147.175 344.454, 167.166 344.829 L 184.832 345.160 185.166 327.803 C 185.498 310.529, 185.515 310.416, 188.760 303.831 C 192.554 296.131, 197.979 290.840, 205.880 287.135 L 211.500 284.500 247 283.998 C 278.318 283.555, 282.971 283.284, 286.500 281.699 C 292.057 279.203, 297.802 273.422, 300.610 267.500 C 302.957 262.550, 302.981 262.167, 302.990 228.928 C 303.002 190.130, 302.759 188.664, 295.048 180.952 C 287.342 173.247, 285.819 172.993, 247.572 173.044 C 223.171 173.076, 213.552 173.426, 210.885 174.380 M 310.786 250.250 C 310.451 263.213, 310.067 266.214, 308.228 270.259 C 305.417 276.439, 297.737 284.596, 292.020 287.475 C 284.113 291.457, 278.529 291.999, 245.201 292.022 C 216.542 292.042, 213.110 292.221, 209.435 293.890 C 203.465 296.602, 198.475 301.406, 195.567 307.241 L 193 312.393 193.010 348.946 C 193.019 385.135, 193.043 385.550, 195.353 390.500 C 196.636 393.250, 199.606 397.231, 201.954 399.347 C 209.976 406.580, 209.462 406.500, 248 406.500 C 282.285 406.500, 282.530 406.485, 287.270 404.130 C 289.894 402.827, 293.798 399.764, 295.945 397.325 C 301.929 390.527, 303 386.125, 303 368.339 L 303 353.035 278.358 352.767 C 256.152 352.526, 253.608 352.327, 252.613 350.750 C 251.809 349.474, 251.809 348.526, 252.613 347.250 C 253.630 345.638, 257.285 345.461, 299.108 345 C 349.457 344.445, 347.964 344.641, 355.793 337.568 C 358.001 335.573, 360.863 331.817, 362.154 329.221 C 364.479 324.542, 364.500 324.190, 364.500 290 C 364.500 251.462, 364.580 251.976, 357.347 243.954 C 355.231 241.606, 351.250 238.636, 348.500 237.353 C 343.914 235.213, 342.163 235.019, 327.340 235.010 L 311.179 235 310.786 250.250" stroke="none" fill="#3a2c60" fill-rule="evenodd"/><path d="M 155.452 78.406 C 150.096 80.739, 147.345 87.045, 149.027 93.135 C 150.396 98.095, 154.021 101.135, 159.272 101.727 C 167.381 102.641, 173.333 97.524, 173.333 89.640 C 173.333 80.170, 164.354 74.528, 155.452 78.406 M 208.455 197.455 C 203.326 202.583, 206.851 212, 213.899 212 C 218.490 212, 222.400 208.090, 222.400 203.500 C 222.400 196.110, 213.610 192.300, 208.455 197.455 M 276.201 368.028 C 272.139 371.812, 272.166 377.214, 276.267 381.034 C 281.366 385.785, 290 381.677, 290 374.500 C 290 367.268, 281.364 363.218, 276.201 368.028 M 23 435.520 C 23 437.994, 25.766 442.723, 28.217 444.439 C 30.219 445.842, 52.407 446, 247.272 446 C 487.715 446, 468.616 446.556, 471.579 439.466 C 473.720 434.341, 473.403 434.068, 468.313 436.645 L 463.626 439.018 246.397 438.759 L 29.167 438.500 26.084 436.220 C 23.569 434.361, 23 434.232, 23 435.520" stroke="none" fill="#ffffff" fill-rule="evenodd"/><path d="M 58.898 79.287 C 50.068 85.228, 52.638 99.210, 63.077 102.021 C 71.181 104.203, 79 98.180, 79 89.756 C 79 79.237, 67.710 73.357, 58.898 79.287 M 310.786 250.250 C 310.451 263.213, 310.067 266.214, 308.228 270.259 C 305.417 276.439, 297.737 284.596, 292.020 287.475 C 284.113 291.457, 278.529 291.999, 245.201 292.022 C 216.542 292.042, 213.110 292.221, 209.435 293.890 C 203.465 296.602, 198.475 301.406, 195.567 307.241 L 193 312.393 193.010 348.946 C 193.019 385.135, 193.043 385.550, 195.353 390.500 C 196.636 393.250, 199.606 397.231, 201.954 399.347 C 209.976 406.580, 209.462 406.500, 248 406.500 C 282.285 406.500, 282.530 406.485, 287.270 404.130 C 289.894 402.827, 293.798 399.764, 295.945 397.325 C 301.929 390.527, 303 386.125, 303 368.339 L 303 353.035 278.358 352.767 C 256.152 352.526, 253.608 352.327, 252.613 350.750 C 251.809 349.474, 251.809 348.526, 252.613 347.250 C 253.630 345.638, 257.285 345.461, 299.108 345 C 349.457 344.445, 347.964 344.641, 355.793 337.568 C 358.001 335.573, 360.863 331.817, 362.154 329.221 C 364.479 324.542, 364.500 324.190, 364.500 290 C 364.500 251.462, 364.580 251.976, 357.347 243.954 C 355.231 241.606, 351.250 238.636, 348.500 237.353 C 343.914 235.213, 342.163 235.019, 327.340 235.010 L 311.179 235 310.786 250.250 M 279.270 365.798 C 275.988 366.292, 273 370.660, 273 374.961 C 273 382.717, 282.153 386.301, 287.727 380.727 C 294.162 374.292, 288.557 364.399, 279.270 365.798" stroke="none" fill="#fa759e" fill-rule="evenodd"/><path d="M 155.452 78.406 C 150.096 80.739, 147.345 87.045, 149.027 93.135 C 150.396 98.095, 154.021 101.135, 159.272 101.727 C 167.381 102.641, 173.333 97.524, 173.333 89.640 C 173.333 80.170, 164.354 74.528, 155.452 78.406 M 208.455 197.455 C 203.326 202.583, 206.851 212, 213.899 212 C 218.490 212, 222.400 208.090, 222.400 203.500 C 222.400 196.110, 213.610 192.300, 208.455 197.455 M 276.201 368.028 C 272.139 371.812, 272.166 377.214, 276.267 381.034 C 281.366 385.785, 290 381.677, 290 374.500 C 290 367.268, 281.364 363.218, 276.201 368.028 M 23 435.520 C 23 437.994, 25.766 442.723, 28.217 444.439 C 30.219 445.842, 52.407 446, 247.272 446 C 487.715 446, 468.616 446.556, 471.579 439.466 C 473.720 434.341, 473.403 434.068, 468.313 436.645 L 463.626 439.018 246.397 438.759 L 29.167 438.500 26.084 436.220 C 23.569 434.361, 23 434.232, 23 435.520" stroke="none" fill="#ffffff" fill-rule="evenodd"/><path d="M 211.173 174.874 C 205.166 176.984, 198.924 182.472, 195.674 188.500 C 193.761 192.049, 193.479 194.389, 193.175 209.250 L 192.831 226 216.844 226 C 237.341 226, 241.087 226.230, 242.429 227.571 C 244.220 229.363, 244.382 230.846, 243.022 233 C 242.210 234.285, 235.527 234.572, 196.287 235 C 144.285 235.568, 146.698 235.180, 138.255 244.339 C 131.245 251.945, 130.824 254.792, 131.187 292.222 C 131.492 323.701, 131.558 324.617, 133.834 329.239 C 136.917 335.499, 144 341.626, 150.328 343.505 C 153.773 344.528, 159.885 345, 169.682 345 L 184 345 184 332.184 C 184 325.135, 184.490 316.715, 185.089 313.474 C 188.015 297.646, 199.273 286.622, 215.138 284.047 C 218.637 283.480, 235.249 283.012, 252.054 283.008 L 282.607 283 287.780 280.422 C 293.367 277.638, 296.834 274.091, 300.298 267.616 C 302.419 263.651, 302.511 262.292, 302.801 230.681 C 303.146 193.048, 302.776 190.435, 296.008 182.747 C 293.791 180.228, 289.845 177.117, 287.239 175.834 C 282.600 173.549, 281.803 173.495, 249.500 173.251 C 219.433 173.024, 216.027 173.169, 211.173 174.874 M 209.775 195.518 C 203.099 199.241, 203.278 208.024, 210.103 211.553 C 213.996 213.566, 218.332 212.664, 220.988 209.288 C 227.013 201.628, 218.209 190.816, 209.775 195.518" stroke="none" fill="#0089ef" fill-rule="evenodd"/><path d="M 58.898 79.287 C 50.068 85.228, 52.638 99.210, 63.077 102.021 C 71.181 104.203, 79 98.180, 79 89.756 C 79 79.237, 67.710 73.357, 58.898 79.287 M 310.786 250.250 C 310.451 263.213, 310.067 266.214, 308.228 270.259 C 305.417 276.439, 297.737 284.596, 292.020 287.475 C 284.113 291.457, 278.529 291.999, 245.201 292.022 C 216.542 292.042, 213.110 292.221, 209.435 293.890 C 203.465 296.602, 198.475 301.406, 195.567 307.241 L 193 312.393 193.010 348.946 C 193.019 385.135, 193.043 385.550, 195.353 390.500 C 196.636 393.250, 199.606 397.231, 201.954 399.347 C 209.976 406.580, 209.462 406.500, 248 406.500 C 282.285 406.500, 282.530 406.485, 287.270 404.130 C 289.894 402.827, 293.798 399.764, 295.945 397.325 C 301.929 390.527, 303 386.125, 303 368.339 L 303 353.035 278.358 352.767 C 256.152 352.526, 253.608 352.327, 252.613 350.750 C 251.809 349.474, 251.809 348.526, 252.613 347.250 C 253.630 345.638, 257.285 345.461, 299.108 345 C 349.457 344.445, 347.964 344.641, 355.793 337.568 C 358.001 335.573, 360.863 331.817, 362.154 329.221 C 364.479 324.542, 364.500 324.190, 364.500 290 C 364.500 251.462, 364.580 251.976, 357.347 243.954 C 355.231 241.606, 351.250 238.636, 348.500 237.353 C 343.914 235.213, 342.163 235.019, 327.340 235.010 L 311.179 235 310.786 250.250 M 279.270 365.798 C 275.988 366.292, 273 370.660, 273 374.961 C 273 382.717, 282.153 386.301, 287.727 380.727 C 294.162 374.292, 288.557 364.399, 279.270 365.798" stroke="none" fill="#fa759e" fill-rule="evenodd"/><path d="M 107.299 78.960 C 99.397 83.777, 99.065 93.973, 106.615 99.912 C 111.783 103.977, 120.817 101.966, 124.364 95.960 C 130.812 85.045, 118.095 72.376, 107.299 78.960 M 23.247 285.142 L 23.500 434.284 26.323 436.392 L 29.147 438.500 246.343 438.759 L 463.540 439.018 468.020 436.759 L 472.500 434.500 472.753 285.250 L 473.007 136 248 136 L 22.993 136 23.247 285.142 M 209.994 165.934 C 202.230 168.296, 194.394 174.152, 190.152 180.763 C 185.440 188.106, 184 195.350, 184 211.710 L 184 226 169.710 226 C 144.546 226, 134.439 230.843, 125.883 247 C 123.515 251.471, 123.498 251.737, 123.205 288.091 C 122.917 323.679, 122.969 324.843, 125.102 330.542 C 128.182 338.774, 137.304 347.930, 145.500 351.014 C 150.528 352.906, 154.115 353.351, 167.652 353.763 L 183.803 354.254 184.157 370.877 C 184.501 387.065, 184.592 387.670, 187.614 394 C 191.336 401.796, 197.501 408.109, 204.987 411.790 L 210.500 414.500 248 414.500 L 285.500 414.500 291.604 411.309 C 299.231 407.322, 306.202 399.702, 309.082 392.202 C 310.901 387.465, 311.355 383.771, 311.762 370.376 L 312.253 354.253 328.376 353.762 C 341.771 353.355, 345.465 352.901, 350.202 351.082 C 357.702 348.202, 365.322 341.231, 369.309 333.604 L 372.500 327.500 372.500 290 L 372.500 252.500 369.795 246.993 C 366.122 239.514, 359.796 233.336, 352 229.614 C 345.664 226.589, 345.078 226.502, 328.750 226.154 L 312 225.798 311.992 213.649 C 311.983 198.917, 310.692 190.298, 307.569 184.136 C 304.176 177.440, 295.628 169.753, 288.687 167.156 C 283.168 165.091, 281.438 165.004, 247.712 165.086 C 228.346 165.133, 211.372 165.515, 209.994 165.934" stroke="none" fill="#d4fbff" fill-rule="evenodd"/><path d="M 155.452 78.406 C 150.096 80.739, 147.345 87.045, 149.027 93.135 C 150.396 98.095, 154.021 101.135, 159.272 101.727 C 167.381 102.641, 173.333 97.524, 173.333 89.640 C 173.333 80.170, 164.354 74.528, 155.452 78.406 M 208.455 197.455 C 203.326 202.583, 206.851 212, 213.899 212 C 218.490 212, 222.400 208.090, 222.400 203.500 C 222.400 196.110, 213.610 192.300, 208.455 197.455 M 276.201 368.028 C 272.139 371.812, 272.166 377.214, 276.267 381.034 C 281.366 385.785, 290 381.677, 290 374.500 C 290 367.268, 281.364 363.218, 276.201 368.028 M 23 435.520 C 23 437.994, 25.766 442.723, 28.217 444.439 C 30.219 445.842, 52.407 446, 247.272 446 C 487.715 446, 468.616 446.556, 471.579 439.466 C 473.720 434.341, 473.403 434.068, 468.313 436.645 L 463.626 439.018 246.397 438.759 L 29.167 438.500 26.084 436.220 C 23.569 434.361, 23 434.232, 23 435.520" stroke="none" fill="#ffffff" fill-rule="evenodd"/><path d="M 28.763 49.565 C 23.139 52.617, 23 53.648, 23 92.450 L 23 128 248 128 L 473 128 473 111.047 C 473 92.883, 472.452 90.224, 468.096 87.264 C 465.778 85.689, 461.801 85.446, 431 85 L 396.500 84.500 395.513 82.250 C 394.634 80.247, 393.808 80, 388 80 C 382.192 80, 381.366 80.247, 380.487 82.250 C 379.504 84.491, 379.411 84.500, 356 84.500 C 332.589 84.500, 332.496 84.491, 331.513 82.250 C 330.698 80.394, 329.734 80, 326 80 C 322.266 80, 321.302 80.394, 320.487 82.250 L 319.500 84.500 272.500 84.762 C 219.366 85.058, 218.667 84.980, 210.469 77.764 C 208.002 75.592, 203.244 69.816, 199.896 64.927 C 192.830 54.611, 188.550 50.524, 183.277 49.060 C 180.793 48.370, 154.175 48.023, 105.500 48.046 C 41.988 48.075, 31.112 48.291, 28.763 49.565 M 58.898 79.287 C 50.068 85.228, 52.638 99.210, 63.077 102.021 C 71.181 104.203, 79 98.180, 79 89.756 C 79 79.237, 67.710 73.357, 58.898 79.287 M 106.567 78.946 C 102.711 81.489, 101.078 84.606, 101.039 89.500 C 100.945 101.350, 114.239 106.961, 122.600 98.600 C 126.637 94.563, 127.713 89.641, 125.641 84.684 C 122.725 77.705, 112.924 74.756, 106.567 78.946 M 152.357 80.312 C 149.340 83.076, 148.672 84.440, 148.316 88.562 C 147.996 92.264, 148.374 94.271, 149.826 96.580 C 151.886 99.854, 157.361 103, 161 103 C 164.639 103, 170.114 99.854, 172.174 96.580 C 173.626 94.271, 174.004 92.264, 173.684 88.562 C 173.328 84.440, 172.660 83.076, 169.643 80.312 C 166.554 77.481, 165.299 77, 161 77 C 156.701 77, 155.446 77.481, 152.357 80.312 M 22.487 285.500 C 22.487 368, 22.605 401.602, 22.750 360.172 C 22.894 318.741, 22.894 251.241, 22.750 210.172 C 22.605 169.102, 22.487 203, 22.487 285.500 M 184.218 211.723 L 184 225.945 169.750 226.252 L 155.500 226.559 169.781 226.780 C 180.740 226.949, 184.179 226.697, 184.562 225.700 C 184.836 224.984, 184.920 218.347, 184.749 210.950 L 184.437 197.500 184.218 211.723 M 318.296 226.744 C 322.583 226.932, 329.333 226.931, 333.296 226.742 C 337.258 226.552, 333.750 226.399, 325.500 226.400 C 317.250 226.401, 314.008 226.556, 318.296 226.744 M 184.400 367.500 C 184.401 375.750, 184.556 378.992, 184.744 374.704 C 184.932 370.417, 184.931 363.667, 184.742 359.704 C 184.552 355.742, 184.399 359.250, 184.400 367.500" stroke="none" fill="#6dc9f7" fill-rule="evenodd"/><path d="M 23.467 43.227 C 20.668 45.125, 17.770 48.181, 16.570 50.500 C 14.501 54.499, 14.500 54.551, 14.242 246.474 L 13.985 438.449 16.503 443.596 C 18.031 446.719, 20.517 449.780, 22.827 451.380 L 26.633 454.018 246.263 454.004 C 398.413 453.995, 466.754 453.666, 468.696 452.932 C 472.688 451.424, 476.951 447.151, 479.104 442.500 C 480.884 438.656, 480.957 431.733, 480.978 264.588 L 481 90.676 478.473 86.364 C 476.914 83.703, 474.139 80.990, 471.223 79.277 L 466.500 76.500 433.500 76.180 C 412.182 75.973, 399.526 76.230, 397.750 76.905 C 394.637 78.088, 394.116 80.973, 396.571 83.429 C 397.938 84.795, 402.554 85, 431.995 85 L 465.847 85 468.894 87.564 C 473.151 91.146, 473.988 95.279, 473.994 112.750 L 474 128 248 128 L 22 128 22 92.950 C 22 54.930, 22.062 54.456, 27.615 50.088 C 30.254 48.012, 30.710 48, 106.478 48 L 182.685 48 187.093 50.309 C 190.522 52.106, 193.309 55.156, 199.654 64.059 C 208.381 76.303, 213.690 81.061, 221 83.189 C 224.426 84.187, 236.640 84.500, 272.166 84.500 C 297.832 84.500, 319.058 84.274, 319.335 83.998 C 319.611 83.722, 320.146 82.266, 320.523 80.763 C 321.108 78.434, 320.822 77.883, 318.586 77.033 C 316.985 76.424, 297.556 76.014, 268.686 75.981 C 223.988 75.929, 221.237 75.822, 218.271 74.019 C 214.700 71.847, 207.807 63.503, 205.409 58.448 C 202.993 53.358, 196.394 46.316, 191.151 43.234 L 186.500 40.500 107.398 40.227 L 28.295 39.954 23.467 43.227 M 333.250 77.003 C 330.633 78.088, 330.308 81.165, 332.571 83.429 C 333.900 84.757, 337.344 84.998, 354.821 84.986 C 366.195 84.979, 376.474 84.711, 377.665 84.392 C 380.141 83.728, 381.677 79.278, 380.007 77.605 C 378.614 76.209, 336.476 75.667, 333.250 77.003 M 22 286.032 C 22 451.180, 21.602 440.958, 28.190 444.974 C 31.483 446.982, 32.615 446.993, 247.800 446.996 C 484.139 447, 467.451 447.425, 471.602 441.301 C 473.442 438.585, 473.508 433.918, 473.766 287.250 L 474.032 136 248.016 136 L 22 136 22 286.032 M 213.355 166.039 C 202.908 168.107, 193.238 175.743, 188.279 185.840 C 185.613 191.269, 185.486 192.220, 185.155 209.155 L 184.809 226.809 167.155 227.155 C 150.217 227.486, 149.270 227.613, 143.836 230.281 C 136.298 233.983, 130.365 240.080, 126.595 248 L 123.500 254.500 123.171 286 C 122.825 319.133, 123.403 325.949, 127.187 333.367 C 130.498 339.856, 137.473 346.485, 144.266 349.598 C 150.210 352.323, 151.298 352.473, 167.655 352.825 L 184.809 353.194 185.183 370.847 C 185.540 387.711, 185.680 388.754, 188.323 394.190 C 191.881 401.510, 200.188 409.178, 207.541 411.929 C 212.743 413.876, 215.134 414, 247.356 414 C 286.476 414, 288.621 413.685, 297.266 406.659 C 303.677 401.449, 308.333 393.945, 309.854 386.371 C 310.484 383.234, 311 374.487, 311 366.934 L 311 353.202 327.750 352.736 C 336.962 352.480, 346.155 351.748, 348.177 351.109 C 353.885 349.304, 361.070 343.994, 365.238 338.500 C 371.711 329.967, 372 327.868, 372 289.356 C 372 257.134, 371.876 254.743, 369.929 249.541 C 367.178 242.188, 359.510 233.881, 352.190 230.323 C 346.754 227.680, 345.711 227.540, 328.847 227.183 L 311.194 226.809 310.825 209.655 C 310.473 193.298, 310.323 192.210, 307.598 186.266 C 302.876 175.962, 293.486 168.515, 282.201 166.123 C 276.062 164.822, 219.851 164.754, 213.355 166.039 M 210.885 174.380 C 203.575 176.992, 198.231 182.029, 194.832 189.512 C 192.845 193.886, 192.518 196.500, 192.181 210.733 L 191.795 226.965 217.148 227.233 L 242.500 227.500 242.500 230.500 L 242.500 233.500 197.500 234 C 153.159 234.493, 152.427 234.534, 147.500 236.804 C 141.447 239.593, 137.695 243.023, 134.161 249 L 131.500 253.500 131.201 287.844 C 130.858 327.236, 131.095 328.828, 138.451 336.396 C 145.926 344.088, 147.175 344.454, 167.166 344.829 L 184.832 345.160 185.166 327.803 C 185.498 310.529, 185.515 310.416, 188.760 303.831 C 192.554 296.131, 197.979 290.840, 205.880 287.135 L 211.500 284.500 247 283.998 C 278.318 283.555, 282.971 283.284, 286.500 281.699 C 292.057 279.203, 297.802 273.422, 300.610 267.500 C 302.957 262.550, 302.981 262.167, 302.990 228.928 C 303.002 190.130, 302.759 188.664, 295.048 180.952 C 287.342 173.247, 285.819 172.993, 247.572 173.044 C 223.171 173.076, 213.552 173.426, 210.885 174.380 M 310.786 250.250 C 310.451 263.213, 310.067 266.214, 308.228 270.259 C 305.417 276.439, 297.737 284.596, 292.020 287.475 C 284.113 291.457, 278.529 291.999, 245.201 292.022 C 216.542 292.042, 213.110 292.221, 209.435 293.890 C 203.465 296.602, 198.475 301.406, 195.567 307.241 L 193 312.393 193.010 348.946 C 193.019 385.135, 193.043 385.550, 195.353 390.500 C 196.636 393.250, 199.606 397.231, 201.954 399.347 C 209.976 406.580, 209.462 406.500, 248 406.500 C 282.285 406.500, 282.530 406.485, 287.270 404.130 C 289.894 402.827, 293.798 399.764, 295.945 397.325 C 301.929 390.527, 303 386.125, 303 368.339 L 303 353.035 278.358 352.767 C 256.152 352.526, 253.608 352.327, 252.613 350.750 C 251.809 349.474, 251.809 348.526, 252.613 347.250 C 253.630 345.638, 257.285 345.461, 299.108 345 C 349.457 344.445, 347.964 344.641, 355.793 337.568 C 358.001 335.573, 360.863 331.817, 362.154 329.221 C 364.479 324.542, 364.500 324.190, 364.500 290 C 364.500 251.462, 364.580 251.976, 357.347 243.954 C 355.231 241.606, 351.250 238.636, 348.500 237.353 C 343.914 235.213, 342.163 235.019, 327.340 235.010 L 311.179 235 310.786 250.250" stroke="none" fill="#3a2c60" fill-rule="evenodd"/><path d="M 207.505 61.095 C 210.313 65.944, 215.270 71.760, 217.913 73.307 C 219.611 74.300, 221 74.824, 221 74.470 C 221 73.106, 214.722 65.172, 212.177 63.320 C 207.646 60.022, 206.592 59.521, 207.505 61.095 M 480.984 267.142 L 480.967 440.500 478.725 444.458 C 477.492 446.636, 474.536 449.786, 472.155 451.458 L 467.828 454.500 248.914 454.757 C 128.511 454.898, 30 455.250, 30 455.539 C 30 455.828, 30.696 457.731, 31.548 459.768 C 33.518 464.483, 36.519 467.692, 41.210 470.097 C 44.824 471.950, 50.622 472, 264 472 C 480.768 472, 483.121 471.979, 486.982 470.009 C 491.666 467.620, 495.393 462.942, 496.948 457.500 C 497.791 454.550, 498.014 408.073, 497.796 280.500 C 497.504 109.570, 497.476 107.459, 495.500 104.106 C 493.053 99.953, 487.454 95.353, 483.750 94.452 L 481 93.783 480.984 267.142 M 140.750 446.750 C 199.738 446.892, 296.263 446.892, 355.250 446.750 C 414.238 446.607, 365.975 446.491, 248 446.491 C 130.025 446.491, 81.763 446.607, 140.750 446.750" stroke="none" fill="#e6e7e8" fill-rule="evenodd"/><path d="M 58.898 79.287 C 50.068 85.228, 52.638 99.210, 63.077 102.021 C 71.181 104.203, 79 98.180, 79 89.756 C 79 79.237, 67.710 73.357, 58.898 79.287 M 310.786 250.250 C 310.451 263.213, 310.067 266.214, 308.228 270.259 C 305.417 276.439, 297.737 284.596, 292.020 287.475 C 284.113 291.457, 278.529 291.999, 245.201 292.022 C 216.542 292.042, 213.110 292.221, 209.435 293.890 C 203.465 296.602, 198.475 301.406, 195.567 307.241 L 193 312.393 193.010 348.946 C 193.019 385.135, 193.043 385.550, 195.353 390.500 C 196.636 393.250, 199.606 397.231, 201.954 399.347 C 209.976 406.580, 209.462 406.500, 248 406.500 C 282.285 406.500, 282.530 406.485, 287.270 404.130 C 289.894 402.827, 293.798 399.764, 295.945 397.325 C 301.929 390.527, 303 386.125, 303 368.339 L 303 353.035 278.358 352.767 C 256.152 352.526, 253.608 352.327, 252.613 350.750 C 251.809 349.474, 251.809 348.526, 252.613 347.250 C 253.630 345.638, 257.285 345.461, 299.108 345 C 349.457 344.445, 347.964 344.641, 355.793 337.568 C 358.001 335.573, 360.863 331.817, 362.154 329.221 C 364.479 324.542, 364.500 324.190, 364.500 290 C 364.500 251.462, 364.580 251.976, 357.347 243.954 C 355.231 241.606, 351.250 238.636, 348.500 237.353 C 343.914 235.213, 342.163 235.019, 327.340 235.010 L 311.179 235 310.786 250.250 M 279.270 365.798 C 275.988 366.292, 273 370.660, 273 374.961 C 273 382.717, 282.153 386.301, 287.727 380.727 C 294.162 374.292, 288.557 364.399, 279.270 365.798" stroke="none" fill="#fa759e" fill-rule="evenodd"/><path d="M 107.299 78.960 C 99.397 83.777, 99.065 93.973, 106.615 99.912 C 111.783 103.977, 120.817 101.966, 124.364 95.960 C 130.812 85.045, 118.095 72.376, 107.299 78.960 M 23.247 285.142 L 23.500 434.284 26.323 436.392 L 29.147 438.500 246.343 438.759 L 463.540 439.018 468.020 436.759 L 472.500 434.500 472.753 285.250 L 473.007 136 248 136 L 22.993 136 23.247 285.142 M 209.994 165.934 C 202.230 168.296, 194.394 174.152, 190.152 180.763 C 185.440 188.106, 184 195.350, 184 211.710 L 184 226 169.710 226 C 144.546 226, 134.439 230.843, 125.883 247 C 123.515 251.471, 123.498 251.737, 123.205 288.091 C 122.917 323.679, 122.969 324.843, 125.102 330.542 C 128.182 338.774, 137.304 347.930, 145.500 351.014 C 150.528 352.906, 154.115 353.351, 167.652 353.763 L 183.803 354.254 184.157 370.877 C 184.501 387.065, 184.592 387.670, 187.614 394 C 191.336 401.796, 197.501 408.109, 204.987 411.790 L 210.500 414.500 248 414.500 L 285.500 414.500 291.604 411.309 C 299.231 407.322, 306.202 399.702, 309.082 392.202 C 310.901 387.465, 311.355 383.771, 311.762 370.376 L 312.253 354.253 328.376 353.762 C 341.771 353.355, 345.465 352.901, 350.202 351.082 C 357.702 348.202, 365.322 341.231, 369.309 333.604 L 372.500 327.500 372.500 290 L 372.500 252.500 369.795 246.993 C 366.122 239.514, 359.796 233.336, 352 229.614 C 345.664 226.589, 345.078 226.502, 328.750 226.154 L 312 225.798 311.992 213.649 C 311.983 198.917, 310.692 190.298, 307.569 184.136 C 304.176 177.440, 295.628 169.753, 288.687 167.156 C 283.168 165.091, 281.438 165.004, 247.712 165.086 C 228.346 165.133, 211.372 165.515, 209.994 165.934" stroke="none" fill="#d4fbff" fill-rule="evenodd"/><path d="M 23.467 43.227 C 20.668 45.125, 17.770 48.181, 16.570 50.500 C 14.501 54.499, 14.500 54.551, 14.242 246.474 L 13.985 438.449 16.503 443.596 C 18.031 446.719, 20.517 449.780, 22.827 451.380 L 26.633 454.018 246.263 454.004 C 398.413 453.995, 466.754 453.666, 468.696 452.932 C 472.688 451.424, 476.951 447.151, 479.104 442.500 C 480.884 438.656, 480.957 431.733, 480.978 264.588 L 481 90.676 478.473 86.364 C 476.914 83.703, 474.139 80.990, 471.223 79.277 L 466.500 76.500 433.500 76.180 C 412.182 75.973, 399.526 76.230, 397.750 76.905 C 394.637 78.088, 394.116 80.973, 396.571 83.429 C 397.938 84.795, 402.554 85, 431.995 85 L 465.847 85 468.894 87.564 C 473.151 91.146, 473.988 95.279, 473.994 112.750 L 474 128 248 128 L 22 128 22 92.950 C 22 54.930, 22.062 54.456, 27.615 50.088 C 30.254 48.012, 30.710 48, 106.478 48 L 182.685 48 187.093 50.309 C 190.522 52.106, 193.309 55.156, 199.654 64.059 C 208.381 76.303, 213.690 81.061, 221 83.189 C 224.426 84.187, 236.640 84.500, 272.166 84.500 C 297.832 84.500, 319.058 84.274, 319.335 83.998 C 319.611 83.722, 320.146 82.266, 320.523 80.763 C 321.108 78.434, 320.822 77.883, 318.586 77.033 C 316.985 76.424, 297.556 76.014, 268.686 75.981 C 223.988 75.929, 221.237 75.822, 218.271 74.019 C 214.700 71.847, 207.807 63.503, 205.409 58.448 C 202.993 53.358, 196.394 46.316, 191.151 43.234 L 186.500 40.500 107.398 40.227 L 28.295 39.954 23.467 43.227 M 333.250 77.003 C 330.633 78.088, 330.308 81.165, 332.571 83.429 C 333.900 84.757, 337.344 84.998, 354.821 84.986 C 366.195 84.979, 376.474 84.711, 377.665 84.392 C 380.141 83.728, 381.677 79.278, 380.007 77.605 C 378.614 76.209, 336.476 75.667, 333.250 77.003 M 22 286.032 C 22 451.180, 21.602 440.958, 28.190 444.974 C 31.483 446.982, 32.615 446.993, 247.800 446.996 C 484.139 447, 467.451 447.425, 471.602 441.301 C 473.442 438.585, 473.508 433.918, 473.766 287.250 L 474.032 136 248.016 136 L 22 136 22 286.032 M 213.355 166.039 C 202.908 168.107, 193.238 175.743, 188.279 185.840 C 185.613 191.269, 185.486 192.220, 185.155 209.155 L 184.809 226.809 167.155 227.155 C 150.217 227.486, 149.270 227.613, 143.836 230.281 C 136.298 233.983, 130.365 240.080, 126.595 248 L 123.500 254.500 123.171 286 C 122.825 319.133, 123.403 325.949, 127.187 333.367 C 130.498 339.856, 137.473 346.485, 144.266 349.598 C 150.210 352.323, 151.298 352.473, 167.655 352.825 L 184.809 353.194 185.183 370.847 C 185.540 387.711, 185.680 388.754, 188.323 394.190 C 191.881 401.510, 200.188 409.178, 207.541 411.929 C 212.743 413.876, 215.134 414, 247.356 414 C 286.476 414, 288.621 413.685, 297.266 406.659 C 303.677 401.449, 308.333 393.945, 309.854 386.371 C 310.484 383.234, 311 374.487, 311 366.934 L 311 353.202 327.750 352.736 C 336.962 352.480, 346.155 351.748, 348.177 351.109 C 353.885 349.304, 361.070 343.994, 365.238 338.500 C 371.711 329.967, 372 327.868, 372 289.356 C 372 257.134, 371.876 254.743, 369.929 249.541 C 367.178 242.188, 359.510 233.881, 352.190 230.323 C 346.754 227.680, 345.711 227.540, 328.847 227.183 L 311.194 226.809 310.825 209.655 C 310.473 193.298, 310.323 192.210, 307.598 186.266 C 302.876 175.962, 293.486 168.515, 282.201 166.123 C 276.062 164.822, 219.851 164.754, 213.355 166.039 M 210.885 174.380 C 203.575 176.992, 198.231 182.029, 194.832 189.512 C 192.845 193.886, 192.518 196.500, 192.181 210.733 L 191.795 226.965 217.148 227.233 L 242.500 227.500 242.500 230.500 L 242.500 233.500 197.500 234 C 153.159 234.493, 152.427 234.534, 147.500 236.804 C 141.447 239.593, 137.695 243.023, 134.161 249 L 131.500 253.500 131.201 287.844 C 130.858 327.236, 131.095 328.828, 138.451 336.396 C 145.926 344.088, 147.175 344.454, 167.166 344.829 L 184.832 345.160 185.166 327.803 C 185.498 310.529, 185.515 310.416, 188.760 303.831 C 192.554 296.131, 197.979 290.840, 205.880 287.135 L 211.500 284.500 247 283.998 C 278.318 283.555, 282.971 283.284, 286.500 281.699 C 292.057 279.203, 297.802 273.422, 300.610 267.500 C 302.957 262.550, 302.981 262.167, 302.990 228.928 C 303.002 190.130, 302.759 188.664, 295.048 180.952 C 287.342 173.247, 285.819 172.993, 247.572 173.044 C 223.171 173.076, 213.552 173.426, 210.885 174.380 M 310.786 250.250 C 310.451 263.213, 310.067 266.214, 308.228 270.259 C 305.417 276.439, 297.737 284.596, 292.020 287.475 C 284.113 291.457, 278.529 291.999, 245.201 292.022 C 216.542 292.042, 213.110 292.221, 209.435 293.890 C 203.465 296.602, 198.475 301.406, 195.567 307.241 L 193 312.393 193.010 348.946 C 193.019 385.135, 193.043 385.550, 195.353 390.500 C 196.636 393.250, 199.606 397.231, 201.954 399.347 C 209.976 406.580, 209.462 406.500, 248 406.500 C 282.285 406.500, 282.530 406.485, 287.270 404.130 C 289.894 402.827, 293.798 399.764, 295.945 397.325 C 301.929 390.527, 303 386.125, 303 368.339 L 303 353.035 278.358 352.767 C 256.152 352.526, 253.608 352.327, 252.613 350.750 C 251.809 349.474, 251.809 348.526, 252.613 347.250 C 253.630 345.638, 257.285 345.461, 299.108 345 C 349.457 344.445, 347.964 344.641, 355.793 337.568 C 358.001 335.573, 360.863 331.817, 362.154 329.221 C 364.479 324.542, 364.500 324.190, 364.500 290 C 364.500 251.462, 364.580 251.976, 357.347 243.954 C 355.231 241.606, 351.250 238.636, 348.500 237.353 C 343.914 235.213, 342.163 235.019, 327.340 235.010 L 311.179 235 310.786 250.250" stroke="none" fill="#3a2c60" fill-rule="evenodd"/><path d="M 211.173 174.874 C 205.166 176.984, 198.924 182.472, 195.674 188.500 C 193.761 192.049, 193.479 194.389, 193.175 209.250 L 192.831 226 216.844 226 C 237.341 226, 241.087 226.230, 242.429 227.571 C 244.220 229.363, 244.382 230.846, 243.022 233 C 242.210 234.285, 235.527 234.572, 196.287 235 C 144.285 235.568, 146.698 235.180, 138.255 244.339 C 131.245 251.945, 130.824 254.792, 131.187 292.222 C 131.492 323.701, 131.558 324.617, 133.834 329.239 C 136.917 335.499, 144 341.626, 150.328 343.505 C 153.773 344.528, 159.885 345, 169.682 345 L 184 345 184 332.184 C 184 325.135, 184.490 316.715, 185.089 313.474 C 188.015 297.646, 199.273 286.622, 215.138 284.047 C 218.637 283.480, 235.249 283.012, 252.054 283.008 L 282.607 283 287.780 280.422 C 293.367 277.638, 296.834 274.091, 300.298 267.616 C 302.419 263.651, 302.511 262.292, 302.801 230.681 C 303.146 193.048, 302.776 190.435, 296.008 182.747 C 293.791 180.228, 289.845 177.117, 287.239 175.834 C 282.600 173.549, 281.803 173.495, 249.500 173.251 C 219.433 173.024, 216.027 173.169, 211.173 174.874 M 209.775 195.518 C 203.099 199.241, 203.278 208.024, 210.103 211.553 C 213.996 213.566, 218.332 212.664, 220.988 209.288 C 227.013 201.628, 218.209 190.816, 209.775 195.518" stroke="none" fill="#0089ef" fill-rule="evenodd"/><path d="M 155.452 78.406 C 150.096 80.739, 147.345 87.045, 149.027 93.135 C 150.396 98.095, 154.021 101.135, 159.272 101.727 C 167.381 102.641, 173.333 97.524, 173.333 89.640 C 173.333 80.170, 164.354 74.528, 155.452 78.406 M 208.455 197.455 C 203.326 202.583, 206.851 212, 213.899 212 C 218.490 212, 222.400 208.090, 222.400 203.500 C 222.400 196.110, 213.610 192.300, 208.455 197.455 M 276.201 368.028 C 272.139 371.812, 272.166 377.214, 276.267 381.034 C 281.366 385.785, 290 381.677, 290 374.500 C 290 367.268, 281.364 363.218, 276.201 368.028 M 23 435.520 C 23 437.994, 25.766 442.723, 28.217 444.439 C 30.219 445.842, 52.407 446, 247.272 446 C 487.715 446, 468.616 446.556, 471.579 439.466 C 473.720 434.341, 473.403 434.068, 468.313 436.645 L 463.626 439.018 246.397 438.759 L 29.167 438.500 26.084 436.220 C 23.569 434.361, 23 434.232, 23 435.520" stroke="none" fill="#ffffff" fill-rule="evenodd"/><path d="M 58.898 79.287 C 50.068 85.228, 52.638 99.210, 63.077 102.021 C 71.181 104.203, 79 98.180, 79 89.756 C 79 79.237, 67.710 73.357, 58.898 79.287 M 310.786 250.250 C 310.451 263.213, 310.067 266.214, 308.228 270.259 C 305.417 276.439, 297.737 284.596, 292.020 287.475 C 284.113 291.457, 278.529 291.999, 245.201 292.022 C 216.542 292.042, 213.110 292.221, 209.435 293.890 C 203.465 296.602, 198.475 301.406, 195.567 307.241 L 193 312.393 193.010 348.946 C 193.019 385.135, 193.043 385.550, 195.353 390.500 C 196.636 393.250, 199.606 397.231, 201.954 399.347 C 209.976 406.580, 209.462 406.500, 248 406.500 C 282.285 406.500, 282.530 406.485, 287.270 404.130 C 289.894 402.827, 293.798 399.764, 295.945 397.325 C 301.929 390.527, 303 386.125, 303 368.339 L 303 353.035 278.358 352.767 C 256.152 352.526, 253.608 352.327, 252.613 350.750 C 251.809 349.474, 251.809 348.526, 252.613 347.250 C 253.630 345.638, 257.285 345.461, 299.108 345 C 349.457 344.445, 347.964 344.641, 355.793 337.568 C 358.001 335.573, 360.863 331.817, 362.154 329.221 C 364.479 324.542, 364.500 324.190, 364.500 290 C 364.500 251.462, 364.580 251.976, 357.347 243.954 C 355.231 241.606, 351.250 238.636, 348.500 237.353 C 343.914 235.213, 342.163 235.019, 327.340 235.010 L 311.179 235 310.786 250.250 M 279.270 365.798 C 275.988 366.292, 273 370.660, 273 374.961 C 273 382.717, 282.153 386.301, 287.727 380.727 C 294.162 374.292, 288.557 364.399, 279.270 365.798" stroke="none" fill="#fa759e" fill-rule="evenodd"/><path d="M 22.451 92.500 C 22.451 112.300, 22.585 120.542, 22.748 110.815 C 22.912 101.088, 22.912 84.888, 22.749 74.815 C 22.586 64.742, 22.452 72.700, 22.451 92.500 M 473.407 112 C 473.407 121.075, 473.559 124.787, 473.744 120.250 C 473.929 115.713, 473.929 108.287, 473.744 103.750 C 473.559 99.213, 473.407 102.925, 473.407 112 M 473.487 285.500 C 473.487 368, 473.605 401.602, 473.750 360.172 C 473.894 318.741, 473.894 251.241, 473.750 210.172 C 473.605 169.102, 473.487 203, 473.487 285.500 M 199.946 181.750 L 196.500 185.500 200.250 182.054 C 203.740 178.846, 204.460 178, 203.696 178 C 203.529 178, 201.842 179.688, 199.946 181.750 M 292 178.313 C 292 178.485, 293.462 179.948, 295.250 181.563 L 298.500 184.500 295.563 181.250 C 292.825 178.221, 292 177.540, 292 178.313 M 192.220 212.250 L 192 227 216.750 226.769 L 241.500 226.537 217.277 226.251 L 193.055 225.965 192.748 211.732 L 192.441 197.500 192.220 212.250 M 177.318 234.749 C 189.317 234.909, 208.667 234.909, 220.318 234.749 C 231.968 234.589, 222.150 234.458, 198.500 234.458 C 174.850 234.459, 165.318 234.590, 177.318 234.749 M 138.946 242.750 L 135.500 246.500 139.250 243.054 C 142.740 239.846, 143.460 239, 142.696 239 C 142.529 239, 140.842 240.688, 138.946 242.750 M 372.445 290 C 372.445 307.325, 372.582 314.413, 372.748 305.750 C 372.915 297.087, 372.915 282.913, 372.748 274.250 C 372.582 265.587, 372.445 272.675, 372.445 290 M 234.312 283.748 C 243.009 283.915, 256.959 283.915, 265.312 283.748 C 273.666 283.581, 266.550 283.444, 249.500 283.445 C 232.450 283.445, 225.616 283.582, 234.312 283.748 M 184.397 331 C 184.397 338.975, 184.553 342.238, 184.743 338.250 C 184.932 334.262, 184.932 327.738, 184.743 323.750 C 184.553 319.762, 184.397 323.025, 184.397 331 M 232.250 414.748 C 240.912 414.915, 255.087 414.915, 263.750 414.748 C 272.413 414.582, 265.325 414.445, 248 414.445 C 230.675 414.445, 223.587 414.582, 232.250 414.748 M 139.750 454.750 C 199.288 454.892, 296.713 454.892, 356.250 454.750 C 415.788 454.608, 367.075 454.491, 248 454.491 C 128.925 454.491, 80.213 454.608, 139.750 454.750" stroke="none" fill="#25549c" fill-rule="evenodd"/><path d="M 159.250 102.689 C 160.213 102.941, 161.787 102.941, 162.750 102.689 C 163.713 102.438, 162.925 102.232, 161 102.232 C 159.075 102.232, 158.287 102.438, 159.250 102.689 M 311.395 212.500 C 311.396 220.200, 311.553 223.218, 311.743 219.206 C 311.934 215.195, 311.932 208.895, 311.741 205.206 C 311.549 201.518, 311.393 204.800, 311.395 212.500 M 163.206 353.741 C 166.895 353.932, 173.195 353.934, 177.206 353.743 C 181.218 353.553, 178.200 353.396, 170.500 353.395 C 162.800 353.393, 159.518 353.549, 163.206 353.741 M 311.219 367.250 L 311.439 381.500 311.747 367.778 L 312.056 354.056 325.778 353.747 L 339.500 353.439 325.250 353.219 L 311 353 311.219 367.250" stroke="none" fill="#c3f0f8" fill-rule="evenodd"/></svg>