<svg xmlns="http://www.w3.org/2000/svg" width="400" height="400" viewBox="0 0 400 400" version="1.1"><path d="M 177 58.125 C 159.736 60.116, 146.155 65.050, 138.491 72.115 C 130.399 79.574, 130 81.048, 130 103.447 L 130 122.974 165.250 123.237 L 200.500 123.500 200.807 127.750 L 201.115 132 149.607 132 C 115.754 132, 96.282 132.380, 92.799 133.109 C 75.909 136.642, 63.599 150.168, 57.859 171.500 C 54.834 182.739, 54.034 214.395, 56.441 227.536 C 58.634 239.505, 61.348 247.530, 65.603 254.625 C 70.552 262.880, 75.473 267.605, 82.974 271.306 C 89.439 274.496, 89.468 274.500, 105.474 274.500 L 121.500 274.500 122.030 251 C 122.513 229.559, 122.760 226.997, 124.850 221.753 C 128.044 213.741, 135.362 206.028, 143.209 202.405 L 149.500 199.500 195 198.920 C 242.130 198.320, 243.792 198.172, 252.349 193.817 C 258.010 190.936, 264.849 184.232, 267.536 178.929 C 271.604 170.901, 272.138 164.093, 271.808 124.500 C 271.509 88.583, 271.436 87.380, 269.298 83.384 C 261.958 69.663, 247.142 61.683, 223 58.447 C 211.555 56.912, 188.884 56.754, 177 58.125 M 157.333 81.122 C 155.591 81.613, 153.004 83.396, 151.583 85.084 C 146.131 91.563, 149.438 101.553, 157.872 104.080 C 167.999 107.114, 176.634 95.473, 171.050 86.314 C 168.077 81.439, 163.013 79.522, 157.333 81.122" stroke="none" fill="#3473a5" fill-rule="evenodd"/><path d="M 280.667 130.667 C 280.300 131.033, 279.993 140.146, 279.985 150.917 C 279.975 164.851, 279.534 172.350, 278.459 176.913 C 275.494 189.489, 269.016 197.756, 258.120 202.865 L 252.500 205.500 207 206.080 C 174.472 206.494, 160.360 207.021, 157.500 207.927 C 150.249 210.225, 141.885 215.303, 138.548 219.434 C 130.299 229.647, 130.024 231.522, 130.022 277.500 C 130.020 316.297, 130.032 316.526, 132.359 321.500 C 135.670 328.576, 141.985 334.401, 151.387 339.052 C 162.719 344.658, 174.511 346.966, 195.500 347.688 C 229.790 348.866, 252.629 343.531, 264.534 331.561 C 271.355 324.703, 272 321.989, 272 300.134 L 272 282 236.500 282 L 201 282 201 277.500 L 201 273 253.395 273 C 302.753 273, 306.160 272.885, 312.187 271.024 C 327.544 266.281, 338.051 254.078, 343.634 234.500 C 346.219 225.437, 346.796 185.040, 344.503 173.703 C 339.971 151.302, 328.602 136.063, 313.068 131.571 C 307.544 129.973, 282.071 129.262, 280.667 130.667 M 236.415 301.409 C 225.827 306.061, 226.771 320.754, 237.872 324.080 C 247.999 327.114, 256.634 315.473, 251.050 306.314 C 247.901 301.149, 241.721 299.079, 236.415 301.409" stroke="none" fill="#fcd343" fill-rule="evenodd"/></svg>