<svg version="1.1" id="Layer_1" xmlns="http://www.w3.org/2000/svg" xmlns:xlink="http://www.w3.org/1999/xlink" x="0px" y="0px"
	 width="100%" viewBox="0 0 262 352" enable-background="new 0 0 262 352" xml:space="preserve">
<path fill="#F8F8F8" opacity="1.000000" stroke="none" 
	d="
M189.000000,1.000000 
	C213.594025,1.000000 238.188049,1.000000 263.000000,1.000000 
	C263.000000,25.687134 263.000000,50.374908 262.645630,75.504150 
	C256.169739,72.828880 252.214081,67.447441 247.772751,62.477474 
	C242.891174,57.014870 237.461426,52.039898 232.232895,46.890667 
	C230.188187,44.876976 228.041245,42.967117 226.375549,41.006710 
	C228.809952,40.850468 230.809692,40.697479 232.809433,40.544487 
	C233.028992,39.995743 233.248535,39.446999 233.468079,38.898251 
	C230.852692,36.970669 228.379608,34.752964 225.509262,33.345222 
	C224.889420,33.041218 222.842712,35.657913 221.440552,36.915119 
	C221.333969,37.010677 221.125656,36.992779 220.663513,36.871624 
	C217.569809,33.487854 214.777222,30.260082 212.028473,26.673477 
	C213.097946,24.565487 214.123566,22.816326 215.377914,20.677088 
	C210.838455,19.641773 208.107056,17.907454 208.839676,13.172854 
	C208.992050,12.188173 207.415863,10.936012 206.112640,9.048829 
	C205.619324,13.588757 205.266449,16.836309 204.567322,20.031170 
	C203.009537,18.721783 201.770218,17.490427 200.594223,16.201311 
	C199.408203,14.901223 198.542221,12.940359 197.087875,12.320452 
	C191.967010,10.137751 190.030853,5.956482 189.000000,1.000000 
M203.004791,9.742817 
	C204.712051,4.493350 200.621414,4.412720 197.471436,3.776848 
	C196.504242,3.581602 195.332413,4.400123 194.254303,4.754418 
	C194.744263,5.877178 194.944626,7.597808 195.781982,8.003417 
	C197.781982,8.972228 200.082245,9.321133 203.004791,9.742817 
z"/>
<path fill="#F3BB37" opacity="1.000000" stroke="none" 
	d="
M263.000000,83.000000 
	C263.000000,83.000000 263.000000,83.500000 262.534973,83.682648 
	C237.596268,83.853439 213.122177,83.903259 188.649399,83.746841 
	C185.789474,83.728569 182.936829,82.571953 180.045547,81.961685 
	C180.010284,81.980301 180.063095,81.920395 180.048828,81.506180 
	C179.724335,78.474289 179.155396,75.857719 179.144196,73.238754 
	C179.041092,49.159409 179.034622,25.079643 179.000000,1.000000 
	C179.444336,1.000000 179.888672,1.000000 180.843948,1.282079 
	C183.325836,3.327583 185.380692,5.006548 187.254349,6.867900 
	C201.245178,20.766785 215.241440,34.660652 229.153442,48.638256 
	C240.494888,60.033188 251.722122,71.541794 263.000000,83.000000 
M187.918900,13.277658 
	C185.952209,11.829536 183.985519,10.381415 182.009766,8.926630 
	C182.009766,29.436531 182.009766,49.219048 182.003220,69.897179 
	C182.012955,71.895676 182.009399,73.894348 182.035187,75.892639 
	C182.090012,80.139717 185.546112,80.467567 188.345520,80.569199 
	C189.174149,80.599281 190.604065,77.585968 190.892258,75.825470 
	C191.328522,73.160408 191.006210,70.371178 191.006210,67.634705 
	C191.501114,67.626610 191.996017,67.618515 192.490921,67.610420 
	C194.091858,71.116371 195.692795,74.622322 197.642868,78.892838 
	C205.207443,81.963394 205.557037,81.932579 207.338196,77.482376 
	C205.053314,76.783409 202.770691,76.085136 200.488052,75.386856 
	C200.483582,74.975571 200.479111,74.564278 200.474640,74.152992 
	C202.587753,73.922432 204.722153,73.381981 206.809555,73.525497 
	C211.220901,73.828789 215.608398,74.816933 220.004059,74.806984 
	C221.347366,74.803955 222.967590,72.645020 223.946381,71.138954 
	C224.922791,69.636536 225.253967,67.714790 225.868042,65.976883 
	C226.362381,66.026474 226.856720,66.076065 227.351059,66.125664 
	C227.564133,67.433975 228.030975,68.759941 227.941437,70.047211 
	C227.698212,73.544182 228.513535,75.862213 232.623550,76.042854 
	C236.661835,76.220352 238.291275,74.036858 238.930634,70.509987 
	C239.354294,68.172966 239.832565,65.845840 240.325775,63.311993 
	C236.986237,63.845676 233.707001,64.369720 230.427780,64.893768 
	C230.119583,64.342392 229.811386,63.791012 229.503204,63.239632 
	C233.891205,61.589981 235.394669,59.107937 232.035217,55.813530 
	C230.076233,53.892471 227.677063,52.420296 225.477844,50.747612 
	C225.105255,51.966370 224.701691,53.286400 224.298126,54.606434 
	C223.891174,54.812347 223.484207,55.018261 223.077240,55.224171 
	C222.261185,44.640930 216.351959,38.427956 209.408264,35.517384 
	C202.564255,27.709312 196.976440,21.244194 191.238754,14.914945 
	C190.599518,14.209822 189.107864,14.277473 187.918900,13.277658 
z"/>
<path fill="#12487B" opacity="1.000000" stroke="none" 
	d="
M1.000003,340.000000 
	C1.000000,231.645233 1.000000,123.290474 1.401815,14.467344 
	C2.874612,13.966409 3.945595,13.933836 4.876431,14.258944 
	C4.824162,17.552481 4.985921,20.488277 4.988307,23.424204 
	C5.008681,48.485146 5.000238,73.546112 5.000227,98.607071 
	C5.000204,153.298157 5.000091,207.989243 4.999969,262.680328 
	C4.999931,279.908112 4.999753,297.135925 4.999664,314.363708 
	C4.999637,319.524017 4.710868,324.706757 5.109399,329.836121 
	C5.343753,332.852386 6.670121,335.783875 7.505326,338.753479 
	C8.102089,338.820862 8.698851,338.888245 9.295613,338.955627 
	C8.195971,339.971527 7.096329,340.987427 5.687473,341.849792 
	C3.918841,341.130829 2.459423,340.565399 1.000003,340.000000 
z"/>
<path fill="#164976" opacity="1.000000" stroke="none" 
	d="
M263.000000,86.000000 
	C263.000000,171.687561 263.000000,257.375122 262.815369,343.786743 
	C261.823975,345.077301 261.017273,345.643860 260.142395,346.142303 
	C260.074219,346.074219 259.938049,345.937897 259.957703,345.556183 
	C259.985321,341.058228 260.000122,336.942017 260.000183,332.825775 
	C260.001465,256.067535 260.007019,179.309280 259.971802,102.551041 
	C259.970764,100.267059 258.970917,97.867432 259.409454,95.720413 
	C260.922607,88.312469 260.129517,87.037323 252.614914,87.015442 
	C237.296707,86.970818 221.970322,86.706856 206.662994,87.117729 
	C198.010391,87.349983 189.018906,85.042061 181.111374,89.791008 
	C179.947052,87.815453 179.174728,85.967453 177.937027,84.516403 
	C175.328308,81.458038 175.271866,78.330597 177.295532,75.232742 
	C178.390778,77.652214 179.226944,79.786301 180.063095,81.920395 
	C180.063095,81.920395 180.010284,81.980301 180.037582,82.362259 
	C181.868149,83.515244 183.660080,84.928566 185.476395,84.960617 
	C211.315659,85.416679 237.158234,85.685768 263.000000,86.000000 
z"/>
<path fill="#134877" opacity="1.000000" stroke="none" 
	d="
M244.000000,353.000000 
	C167.645767,353.000000 91.291542,353.000000 14.467313,352.626526 
	C13.991735,351.506104 13.986159,350.759155 14.421949,350.007782 
	C20.774513,350.002228 26.685713,350.000214 32.596912,350.000153 
	C61.319584,349.999817 90.042259,350.000000 118.764931,350.000000 
	C157.394119,350.000000 196.023392,350.029083 234.652283,349.920959 
	C236.759842,349.915070 239.117264,349.171021 240.912628,348.054016 
	C243.844879,346.229767 243.900085,347.903137 244.000000,350.380341 
	C244.000427,351.503052 244.000214,352.251526 244.000000,353.000000 
z"/>
<path fill="#FCF0C8" opacity="1.000000" stroke="none" 
	d="
M263.000000,82.562500 
	C251.722122,71.541794 240.494888,60.033188 229.153442,48.638256 
	C215.241440,34.660652 201.245178,20.766785 187.254349,6.867900 
	C185.380692,5.006548 183.325836,3.327583 181.177444,1.282079 
	C183.370560,1.000000 185.741104,1.000000 188.555832,1.000000 
	C190.030853,5.956482 191.967010,10.137751 197.087875,12.320452 
	C198.542221,12.940359 199.408203,14.901223 200.594223,16.201311 
	C201.770218,17.490427 203.009537,18.721783 204.631927,20.377602 
	C207.356720,22.861921 209.670685,24.947115 211.984634,27.032310 
	C214.777222,30.260082 217.569809,33.487854 220.816315,37.158875 
	C222.827118,38.738068 224.383987,39.874020 225.940872,41.009964 
	C228.041245,42.967117 230.188187,44.876976 232.232895,46.890667 
	C237.461426,52.039898 242.891174,57.014870 247.772751,62.477474 
	C252.214081,67.447441 256.169739,72.828880 262.645630,75.972809 
	C263.000000,78.041664 263.000000,80.083336 263.000000,82.562500 
z"/>
<path fill="#2A5984" opacity="1.000000" stroke="none" 
	d="
M15.000000,1.000000 
	C68.687561,1.000000 122.375122,1.000000 176.527664,1.232514 
	C176.992645,1.465028 176.948837,1.928046 176.486206,1.952848 
	C122.345634,1.984845 68.667686,1.992040 14.993025,1.749434 
	C14.996301,1.499632 15.000000,1.000000 15.000000,1.000000 
z"/>
<path fill="#565F42" opacity="1.000000" stroke="none" 
	d="
M176.948837,1.928046 
	C176.948837,1.928046 176.992645,1.465028 176.996323,1.232514 
	C177.444443,1.000000 177.888901,1.000000 178.666672,1.000000 
	C179.034622,25.079643 179.041092,49.159409 179.144196,73.238754 
	C179.155396,75.857719 179.724335,78.474289 180.048828,81.506180 
	C179.226944,79.786301 178.390778,77.652214 177.305115,74.785477 
	C177.051224,71.047569 177.046799,68.042328 177.315765,64.722382 
	C177.682785,49.172947 177.785873,33.938244 177.833435,18.703367 
	C177.835236,18.126944 177.299057,17.548840 177.028397,16.577061 
	C177.005920,15.131346 176.968628,14.080092 176.976959,12.687088 
	C176.993240,11.887486 176.963898,11.429632 176.972382,10.548023 
	C176.997299,8.422911 176.984375,6.721555 177.010269,4.635127 
	C177.015656,3.476052 176.982254,2.702049 176.948837,1.928046 
z"/>
<path fill="#565F42" opacity="1.000000" stroke="none" 
	d="
M263.000000,85.666672 
	C237.158234,85.685768 211.315659,85.416679 185.476395,84.960617 
	C183.660080,84.928566 181.868149,83.515244 180.072845,82.343643 
	C182.936829,82.571953 185.789474,83.728569 188.649399,83.746841 
	C213.122177,83.903259 237.596268,83.853439 262.534973,83.932648 
	C263.000000,84.444443 263.000000,84.888893 263.000000,85.666672 
z"/>
<path fill="#3B637F" opacity="1.000000" stroke="none" 
	d="
M14.555836,1.000000 
	C15.000000,1.000000 14.996301,1.499632 14.684016,1.880727 
	C12.576164,3.836084 10.780597,5.410347 8.826939,7.289331 
	C7.451425,9.696456 6.234001,11.798861 5.016577,13.901264 
	C3.945595,13.933836 2.874612,13.966409 1.401815,13.999491 
	C1.000000,11.629442 1.000000,9.258885 1.367096,6.370140 
	C3.419545,4.158754 8.191120,5.815023 7.000000,1.000000 
	C9.370558,1.000000 11.741115,1.000000 14.555836,1.000000 
z"/>
<path fill="#164976" opacity="1.000000" stroke="none" 
	d="
M244.454102,353.000000 
	C244.000214,352.251526 244.000427,351.503052 244.393448,350.377686 
	C249.836868,348.646454 254.887451,347.292175 259.938049,345.937897 
	C259.938049,345.937897 260.074219,346.074219 260.092407,346.482605 
	C258.073730,348.927307 256.036865,350.963654 254.000000,353.000000 
	C250.969406,353.000000 247.938812,353.000000 244.454102,353.000000 
z"/>
<path fill="#275078" opacity="1.000000" stroke="none" 
	d="
M13.980583,350.012207 
	C13.986159,350.759155 13.991735,351.506104 13.998655,352.626526 
	C13.250000,353.000000 12.500000,353.000000 11.159533,352.743164 
	C7.379378,349.324249 4.189689,346.162109 1.000000,343.000000 
	C1.000000,342.250000 1.000000,341.500000 1.000003,340.375000 
	C2.459423,340.565399 3.918841,341.130829 5.693267,342.237061 
	C6.279840,347.818542 9.202817,349.937347 13.980583,350.012207 
z"/>
<path fill="#DDEEF6" opacity="1.000000" stroke="none" 
	d="
M1.000000,343.486572 
	C4.189689,346.162109 7.379378,349.324249 10.784533,352.743164 
	C7.747541,353.000000 4.495082,353.000000 1.000000,353.000000 
	C1.000000,349.993408 1.000000,346.983246 1.000000,343.486572 
z"/>
<path fill="#D9EDF5" opacity="1.000000" stroke="none" 
	d="
M254.491058,353.000000 
	C256.036865,350.963654 258.073730,348.927307 260.160583,346.550659 
	C261.017273,345.643860 261.823975,345.077301 262.815369,344.255371 
	C263.000000,346.917358 263.000000,349.834717 263.000000,353.000000 
	C260.329987,353.000000 257.656036,353.000000 254.491058,353.000000 
z"/>
<path fill="#F8F8F8" opacity="1.000000" stroke="none" 
	d="
M6.500528,1.000000 
	C8.191120,5.815023 3.419545,4.158754 1.367096,5.925976 
	C1.000000,4.412531 1.000000,2.825062 1.000000,1.000000 
	C2.664128,1.000000 4.332592,1.000000 6.500528,1.000000 
z"/>
<path fill="#F8FAEF" opacity="1.000000" stroke="none" 
	d="
M212.028473,26.673477 
	C209.670685,24.947115 207.356720,22.861921 204.978165,20.430294 
	C205.266449,16.836309 205.619324,13.588757 206.112640,9.048829 
	C207.415863,10.936012 208.992050,12.188173 208.839676,13.172854 
	C208.107056,17.907454 210.838455,19.641773 215.377914,20.677088 
	C214.123566,22.816326 213.097946,24.565487 212.028473,26.673477 
z"/>
<path fill="#F8FAEF" opacity="1.000000" stroke="none" 
	d="
M226.375549,41.006714 
	C224.383987,39.874020 222.827118,38.738068 221.117447,37.314873 
	C221.125656,36.992779 221.333969,37.010677 221.440552,36.915119 
	C222.842712,35.657913 224.889420,33.041218 225.509262,33.345222 
	C228.379608,34.752964 230.852692,36.970669 233.468079,38.898251 
	C233.248535,39.446999 233.028992,39.995743 232.809433,40.544487 
	C230.809692,40.697479 228.809952,40.850468 226.375549,41.006714 
z"/>
<path fill="#F8FAEF" opacity="1.000000" stroke="none" 
	d="
M202.633026,9.831583 
	C200.082245,9.321133 197.781982,8.972228 195.781982,8.003417 
	C194.944626,7.597808 194.744263,5.877178 194.254303,4.754421 
	C195.332413,4.400123 196.504242,3.581602 197.471436,3.776848 
	C200.621414,4.412720 204.712051,4.493350 202.633026,9.831583 
z"/>
<path fill="#FEBA21" opacity="1.000000" stroke="none" 
	d="
M188.011520,13.986743 
	C189.107864,14.277473 190.599518,14.209822 191.238754,14.914945 
	C196.976440,21.244194 202.564255,27.709312 209.408264,35.517384 
	C216.351959,38.427956 222.261185,44.640930 223.077240,55.224171 
	C223.484207,55.018261 223.891174,54.812347 224.298126,54.606434 
	C224.701691,53.286400 225.105255,51.966370 225.477844,50.747612 
	C227.677063,52.420296 230.076233,53.892471 232.035217,55.813530 
	C235.394669,59.107937 233.891205,61.589981 229.503204,63.239632 
	C229.811386,63.791012 230.119583,64.342392 230.427780,64.893768 
	C233.707001,64.369720 236.986237,63.845676 240.325775,63.311993 
	C239.832565,65.845840 239.354294,68.172966 238.930634,70.509987 
	C238.291275,74.036858 236.661835,76.220352 232.623550,76.042854 
	C228.513535,75.862213 227.698212,73.544182 227.941437,70.047211 
	C228.030975,68.759941 227.564133,67.433975 227.351059,66.125664 
	C226.856720,66.076065 226.362381,66.026474 225.868042,65.976883 
	C225.253967,67.714790 224.922791,69.636536 223.946381,71.138954 
	C222.967590,72.645020 221.347366,74.803955 220.004059,74.806984 
	C215.608398,74.816933 211.220901,73.828789 206.809555,73.525497 
	C204.722153,73.381981 202.587753,73.922432 200.474640,74.152992 
	C200.479111,74.564278 200.483582,74.975571 200.488052,75.386856 
	C202.770691,76.085136 205.053314,76.783409 207.338196,77.482376 
	C205.557037,81.932579 205.207443,81.963394 197.642868,78.892838 
	C195.692795,74.622322 194.091858,71.116371 192.490921,67.610420 
	C191.996017,67.618515 191.501114,67.626610 191.006210,67.634705 
	C191.006210,70.371178 191.328522,73.160408 190.892258,75.825470 
	C190.604065,77.585968 189.174149,80.599281 188.345520,80.569199 
	C185.546112,80.467567 182.090012,80.139717 182.035187,75.892639 
	C182.009399,73.894348 182.012955,71.895676 182.417801,69.448433 
	C185.895538,69.411629 187.469818,68.271713 187.110580,64.784042 
	C187.420654,64.295944 187.679855,64.106873 188.332367,64.136566 
	C189.440903,63.667130 190.881790,63.070736 190.891022,62.452957 
	C191.030991,53.085209 191.030762,43.713959 190.893784,34.346012 
	C190.882217,33.555355 189.660248,32.782398 189.000259,31.625931 
	C189.000137,30.500059 189.000366,29.749477 189.391846,28.905342 
	C190.188599,26.168558 190.616867,23.528568 190.993668,20.881252 
	C191.433395,17.791899 189.938782,16.641886 187.000916,17.000038 
	C187.000000,17.000000 187.000000,16.998425 187.002350,16.659920 
	C187.340302,15.543191 187.675903,14.764967 188.011520,13.986743 
M213.486328,43.031940 
	C212.182663,42.427414 210.878983,41.822891 208.812256,40.864525 
	C211.561783,48.097092 213.860901,49.634560 218.434845,47.402679 
	C216.826157,45.991703 215.423920,44.761787 213.486328,43.031940 
M218.329285,61.493969 
	C217.696533,61.967564 217.063782,62.441158 216.431046,62.914757 
	C216.730545,63.205181 217.030045,63.495609 217.329544,63.786030 
	C217.798248,63.182667 218.266968,62.579300 218.329285,61.493969 
z"/>
<path fill="#FEB826" opacity="1.000000" stroke="none" 
	d="
M187.000000,65.001221 
	C187.469818,68.271713 185.895538,69.411629 182.421082,69.000626 
	C182.009766,49.219048 182.009766,29.436531 182.009766,8.926630 
	C183.985519,10.381415 185.952209,11.829536 187.965210,13.632200 
	C187.675903,14.764967 187.340302,15.543191 186.610733,16.717253 
	C185.478134,18.753647 184.085648,20.401608 184.104126,22.033587 
	C184.253662,35.237659 184.621109,48.440388 185.084686,61.637814 
	C185.124817,62.779968 186.333908,63.881058 187.000000,65.001221 
z"/>
<path fill="#0E4B82" opacity="1.000000" stroke="none" 
	d="
M14.421949,350.007782 
	C9.202817,349.937347 6.279840,347.818542 6.002481,342.390564 
	C7.096329,340.987427 8.195971,339.971527 9.295613,338.955627 
	C8.698851,338.888245 8.102089,338.820862 7.505326,338.753479 
	C6.670121,335.783875 5.343753,332.852386 5.109399,329.836121 
	C4.710868,324.706757 4.999637,319.524017 4.999664,314.363708 
	C4.999753,297.135925 4.999931,279.908112 4.999969,262.680328 
	C5.000091,207.989243 5.000204,153.298157 5.000227,98.607071 
	C5.000238,73.546112 5.008681,48.485146 4.988307,23.424204 
	C4.985921,20.488277 4.824162,17.552481 4.876431,14.258944 
	C6.234001,11.798861 7.451425,9.696456 9.238226,7.293485 
	C13.053377,5.999797 16.284224,4.199841 19.547255,4.139465 
	C49.286934,3.589198 79.031631,3.179729 108.776100,3.073478 
	C123.980057,3.019168 139.188049,3.610440 154.391220,4.021044 
	C161.921463,4.224420 169.444931,4.679175 176.971466,5.020198 
	C176.984375,6.721555 176.997299,8.422911 176.637390,10.561756 
	C175.678818,11.364731 175.093048,11.730218 174.507294,12.095707 
	C175.315308,12.406753 176.123322,12.717796 176.931335,13.028839 
	C176.968628,14.080092 177.005920,15.131346 176.734131,16.877529 
	C176.307632,32.836571 176.179855,48.100639 176.114227,63.364975 
	C176.111832,63.921001 176.719208,64.479652 177.042389,65.037079 
	C177.046799,68.042328 177.051224,71.047569 177.046051,74.500084 
	C175.271866,78.330597 175.328308,81.458038 177.937027,84.516403 
	C179.174728,85.967453 179.947052,87.815453 181.111374,89.791008 
	C189.018906,85.042061 198.010391,87.349983 206.662994,87.117729 
	C221.970322,86.706856 237.296707,86.970818 252.614914,87.015442 
	C260.129517,87.037323 260.922607,88.312469 259.409454,95.720413 
	C258.970917,97.867432 259.970764,100.267059 259.971802,102.551041 
	C260.007019,179.309280 260.001465,256.067535 260.000183,332.825775 
	C260.000122,336.942017 259.985321,341.058228 259.957703,345.556183 
	C254.887451,347.292175 249.836868,348.646454 244.392822,350.003418 
	C243.900085,347.903137 243.844879,346.229767 240.912628,348.054016 
	C239.117264,349.171021 236.759842,349.915070 234.652283,349.920959 
	C196.023392,350.029083 157.394119,350.000000 118.764931,350.000000 
	C90.042259,350.000000 61.319584,349.999817 32.596912,350.000153 
	C26.685713,350.000214 20.774513,350.002228 14.421949,350.007782 
M98.996468,209.800674 
	C98.998718,210.868484 99.000969,211.936295 98.488960,213.429703 
	C98.663406,214.617935 98.837852,215.806152 99.008118,217.909988 
	C99.329544,225.598022 99.650970,233.286041 99.228882,241.162399 
	C99.156395,243.773727 99.083908,246.385056 99.007195,249.933960 
	C99.341438,257.622009 99.675682,265.310059 99.381378,273.055542 
	C98.936188,273.681396 98.008621,274.752472 98.115746,274.868561 
	C101.534355,278.572388 105.840790,278.457458 110.013046,276.851837 
	C111.545998,276.261932 113.230217,274.205872 113.517738,272.583313 
	C114.423492,267.472015 114.699486,262.249176 115.275009,256.513641 
	C116.227654,256.255219 118.599159,254.727890 120.156853,255.324677 
	C137.775986,262.074982 153.466324,246.027939 152.180420,228.131378 
	C151.757233,222.241806 150.027145,216.292999 154.081192,210.618774 
	C154.081192,213.815460 154.081192,217.012131 154.081192,219.953735 
	C154.506989,220.089569 155.994385,220.144989 156.209137,220.696228 
	C158.921082,227.657150 161.345581,234.730362 164.073929,241.684479 
	C165.233597,244.640259 164.302460,248.291489 167.878326,250.546844 
	C170.532166,252.220688 169.536270,255.229309 168.144394,257.590363 
	C167.019485,259.498535 166.228317,261.753174 162.858124,260.216461 
	C161.298676,259.505432 158.822922,260.575439 156.830261,261.096649 
	C153.845322,261.877411 152.723206,266.665710 154.659470,269.700775 
	C153.673889,274.414642 156.743866,277.001068 158.596680,279.032959 
	C161.587540,278.156036 163.557602,277.472137 165.577637,277.003815 
	C176.815353,274.398438 186.321854,270.906097 185.486465,256.989075 
	C185.657654,256.981171 185.828827,256.973297 186.641830,256.889709 
	C186.753525,255.931061 186.865204,254.972397 186.991455,253.337830 
	C187.001938,252.887253 187.012405,252.436661 187.699066,251.880646 
	C188.114624,250.926697 188.530197,249.972733 189.253922,248.360031 
	C190.156021,246.243362 191.591476,244.192566 191.862442,241.997971 
	C192.754974,234.768982 200.528687,229.823517 198.471176,221.692276 
	C198.448486,221.602600 198.710022,221.468430 198.772003,221.325928 
	C201.107834,215.955292 203.529877,210.618378 205.679703,205.174011 
	C206.074966,204.173035 205.770996,202.384186 205.074814,201.571381 
	C203.659058,199.918488 192.656662,201.248123 190.324997,203.075699 
	C187.439713,204.537308 185.434372,206.244858 185.632614,210.125214 
	C185.745239,212.329666 184.059784,214.625443 183.186218,216.880920 
	C181.665054,220.808441 180.143799,224.735916 178.643204,228.671280 
	C178.622498,228.725586 178.870697,228.882462 179.000000,229.000000 
	C179.000000,229.000000 179.008545,229.006409 178.929901,229.595795 
	C178.717789,229.815598 178.523651,230.059372 178.282410,230.240341 
	C178.211487,230.293518 177.912964,230.207123 177.877213,230.119812 
	C176.147400,225.895599 174.405106,221.676010 172.735413,217.427917 
	C172.076309,215.750992 171.214951,214.036835 171.081985,212.291168 
	C170.636444,206.441757 167.356079,200.232529 162.781815,199.658417 
	C158.378052,199.105698 153.457947,199.352325 151.074844,204.911530 
	C150.638916,205.928482 147.573914,206.508316 145.969254,206.158417 
	C143.997925,205.728531 142.394577,203.832367 140.437851,203.066452 
	C136.807709,201.645508 133.023438,199.543396 129.326920,199.590134 
	C121.562431,199.688278 114.076134,203.534653 105.926125,200.247879 
	C102.303825,198.787048 99.517967,201.742371 99.991394,205.494949 
	C99.991394,205.494949 99.985687,205.992981 99.381912,206.047989 
	C97.133255,206.756424 96.742722,207.706253 98.996468,209.800674 
M90.242882,238.469971 
	C85.520607,232.361832 79.556541,232.758774 74.562309,234.644135 
	C73.083961,237.499359 71.764107,239.246277 71.265099,241.202560 
	C70.539406,244.047562 69.132111,247.744446 70.280815,249.830856 
	C72.766197,254.345123 77.918503,255.866974 82.869133,256.689301 
	C84.485985,256.957886 86.680489,256.627136 87.933128,255.677002 
	C91.883873,252.680389 93.075554,244.334167 90.242882,238.469971 
z"/>
<path fill="#164976" opacity="1.000000" stroke="none" 
	d="
M177.010269,4.635127 
	C169.444931,4.679175 161.921463,4.224420 154.391220,4.021044 
	C139.188049,3.610440 123.980057,3.019168 108.776100,3.073478 
	C79.031631,3.179729 49.286934,3.589198 19.547255,4.139465 
	C16.284224,4.199841 13.053377,5.999797 9.396316,6.988764 
	C10.780597,5.410347 12.576164,3.836084 14.680740,2.130528 
	C68.667686,1.992040 122.345634,1.984845 176.486206,1.952848 
	C176.982254,2.702049 177.015656,3.476052 177.010269,4.635127 
z"/>
<path fill="#164976" opacity="1.000000" stroke="none" 
	d="
M177.315765,64.722382 
	C176.719208,64.479652 176.111832,63.921001 176.114227,63.364975 
	C176.179855,48.100639 176.307632,32.836571 176.719315,17.271988 
	C177.299057,17.548840 177.835236,18.126944 177.833435,18.703367 
	C177.785873,33.938244 177.682785,49.172947 177.315765,64.722382 
z"/>
<path fill="#164976" opacity="1.000000" stroke="none" 
	d="
M176.976959,12.687089 
	C176.123322,12.717796 175.315308,12.406753 174.507294,12.095707 
	C175.093048,11.730218 175.678818,11.364731 176.599579,10.985512 
	C176.963898,11.429632 176.993240,11.887486 176.976959,12.687089 
z"/>
<path fill="#F9BC1F" opacity="1.000000" stroke="none" 
	d="
M187.110580,64.784042 
	C186.333908,63.881058 185.124817,62.779968 185.084686,61.637814 
	C184.621109,48.440388 184.253662,35.237659 184.104126,22.033587 
	C184.085648,20.401608 185.478134,18.753647 186.608383,17.055758 
	C187.000000,16.998425 187.000000,17.000000 187.048370,17.388954 
	C187.731354,21.518240 188.365982,25.258570 189.000610,28.998898 
	C189.000366,29.749477 189.000137,30.500059 188.832520,32.008816 
	C188.443375,34.553638 188.043976,36.338894 188.030014,38.127163 
	C187.962677,46.750885 187.999130,55.375416 187.998779,63.999660 
	C187.679855,64.106873 187.420654,64.295944 187.110580,64.784042 
z"/>
<path fill="#FEB826" opacity="1.000000" stroke="none" 
	d="
M188.332367,64.136566 
	C187.999130,55.375416 187.962677,46.750885 188.030014,38.127163 
	C188.043976,36.338894 188.443375,34.553638 188.832886,32.384106 
	C189.660248,32.782398 190.882217,33.555355 190.893784,34.346012 
	C191.030762,43.713959 191.030991,53.085209 190.891022,62.452957 
	C190.881790,63.070736 189.440903,63.667130 188.332367,64.136566 
z"/>
<path fill="#F3BB37" opacity="1.000000" stroke="none" 
	d="
M213.753998,43.281906 
	C215.423920,44.761787 216.826157,45.991703 218.434845,47.402679 
	C213.860901,49.634560 211.561783,48.097092 208.812256,40.864525 
	C210.878983,41.822891 212.182663,42.427414 213.753998,43.281906 
z"/>
<path fill="#FEB826" opacity="1.000000" stroke="none" 
	d="
M189.391846,28.905342 
	C188.365982,25.258570 187.731354,21.518240 187.049286,17.388992 
	C189.938782,16.641886 191.433395,17.791899 190.993668,20.881252 
	C190.616867,23.528568 190.188599,26.168558 189.391846,28.905342 
z"/>
<path fill="#F3BB37" opacity="1.000000" stroke="none" 
	d="
M218.532486,61.734955 
	C218.266968,62.579300 217.798248,63.182667 217.329544,63.786034 
	C217.030045,63.495609 216.730545,63.205181 216.431046,62.914757 
	C217.063782,62.441158 217.696533,61.967564 218.532486,61.734955 
z"/>
<path fill="#1E4D76" opacity="1.000000" stroke="none" 
	d="
M178.993393,228.991455 
	C178.870697,228.882462 178.622498,228.725586 178.643204,228.671280 
	C180.143799,224.735916 181.665054,220.808441 183.186218,216.880920 
	C184.059784,214.625443 185.745239,212.329666 185.632614,210.125214 
	C185.434372,206.244858 187.439713,204.537308 190.708313,203.380585 
	C191.127792,203.908081 191.163956,204.130707 191.243073,204.637268 
	C191.189316,205.283096 191.092621,205.644989 190.786835,206.170654 
	C190.574158,206.667099 190.570587,206.999771 190.537689,207.365143 
	C190.508377,207.397842 190.524399,207.484192 190.138977,207.466309 
	C188.448059,211.959198 187.142578,216.469971 185.834564,221.300507 
	C185.374756,222.804260 184.917480,223.988251 184.186020,225.211761 
	C183.883560,225.829559 183.855316,226.407822 183.833557,227.268280 
	C183.602875,228.050232 183.365662,228.550003 182.842957,229.246246 
	C182.434601,230.102219 182.311737,230.761719 182.177841,231.780457 
	C181.215622,233.546875 180.264420,234.954041 178.877731,237.005493 
	C177.402954,235.036606 175.985596,233.797195 175.393417,232.243332 
	C172.485306,224.612350 169.737778,216.918274 167.048508,209.206406 
	C164.846481,202.891815 159.106476,201.086899 153.393570,204.850754 
	C154.438950,207.302902 155.501495,209.699615 156.488617,212.126999 
	C161.547958,224.568100 166.494873,237.055984 171.675018,249.446457 
	C174.149704,255.365707 172.945801,259.566681 166.836182,263.046173 
	C165.657928,263.328979 164.831894,263.643127 163.573181,264.066162 
	C161.233002,264.175049 159.325500,264.175049 157.165924,264.175049 
	C156.967361,265.520721 156.785355,266.754150 156.337082,268.018250 
	C155.670410,268.379974 155.270020,268.711029 154.869614,269.042053 
	C152.723206,266.665710 153.845322,261.877411 156.830261,261.096649 
	C158.822922,260.575439 161.298676,259.505432 162.858124,260.216461 
	C166.228317,261.753174 167.019485,259.498535 168.144394,257.590363 
	C169.536270,255.229309 170.532166,252.220688 167.878326,250.546844 
	C164.302460,248.291489 165.233597,244.640259 164.073929,241.684479 
	C161.345581,234.730362 158.921082,227.657150 156.209137,220.696228 
	C155.994385,220.144989 154.506989,220.089569 154.081192,219.953735 
	C154.081192,217.012131 154.081192,213.815460 154.081192,210.618774 
	C150.027145,216.292999 151.757233,222.241806 152.180420,228.131378 
	C153.466324,246.027939 137.775986,262.074982 120.156853,255.324677 
	C118.599159,254.727890 116.227654,256.255219 115.275009,256.513641 
	C114.699486,262.249176 114.423492,267.472015 113.517738,272.583313 
	C113.230217,274.205872 111.545998,276.261932 110.013046,276.851837 
	C105.840790,278.457458 101.534355,278.572388 98.115746,274.868561 
	C98.008621,274.752472 98.936188,273.681396 100.043419,272.984528 
	C100.936554,272.879150 101.167648,272.844788 101.674225,272.871216 
	C102.308960,272.960541 102.668213,272.989014 103.335709,273.166931 
	C104.085480,273.232269 104.527000,273.148163 105.416420,273.175781 
	C107.918869,273.287537 109.973419,273.287537 112.370491,273.287537 
	C112.230530,270.250916 112.132561,268.125214 112.140373,265.558411 
	C112.103836,262.413452 111.961510,259.709656 111.889214,256.609192 
	C111.981750,255.143478 112.004250,254.074402 112.119179,252.619385 
	C112.743195,250.521591 113.274773,248.809708 113.924698,247.402542 
	C115.230919,248.601883 116.418808,249.496506 117.600655,250.366806 
	C117.594620,250.342468 117.635620,250.368988 117.769814,250.611115 
	C118.246094,250.965149 118.588181,251.077057 119.184662,251.452698 
	C130.257889,255.371521 140.470245,252.145416 145.481354,243.035431 
	C150.114227,234.613083 150.459793,225.722946 147.454559,216.572998 
	C143.734573,205.246796 131.619186,199.974335 121.207138,203.396606 
	C117.988014,204.454712 115.234200,206.928406 112.316994,208.723434 
	C111.985504,207.507019 111.649940,206.275635 111.239090,204.752411 
	C110.783470,204.388062 110.403137,204.315521 109.687912,204.149536 
	C108.894302,204.099609 108.435577,204.143127 107.561310,204.116608 
	C105.056046,204.367188 102.966339,204.687805 100.658157,205.005524 
	C100.439682,205.002640 100.002747,204.996948 100.002747,204.996948 
	C99.517967,201.742371 102.303825,198.787048 105.926125,200.247879 
	C114.076134,203.534653 121.562431,199.688278 129.326920,199.590134 
	C133.023438,199.543396 136.807709,201.645508 140.437851,203.066452 
	C142.394577,203.832367 143.997925,205.728531 145.969254,206.158417 
	C147.573914,206.508316 150.638916,205.928482 151.074844,204.911530 
	C153.457947,199.352325 158.378052,199.105698 162.781815,199.658417 
	C167.356079,200.232529 170.636444,206.441757 171.081985,212.291168 
	C171.214951,214.036835 172.076309,215.750992 172.735413,217.427917 
	C174.405106,221.676010 176.147400,225.895599 177.877213,230.119812 
	C177.912964,230.207123 178.211487,230.293518 178.282410,230.240341 
	C178.523651,230.059372 178.717789,229.815598 179.102722,229.245758 
	C179.181488,228.927643 179.087448,228.959549 178.993393,228.991455 
M150.264893,212.531754 
	C150.264893,211.621750 150.264893,210.711746 150.264893,209.801743 
	C149.862289,209.856369 149.459671,209.910995 149.057068,209.965607 
	C149.254410,210.809326 149.451767,211.653046 150.264893,212.531754 
z"/>
<path fill="#275078" opacity="1.000000" stroke="none" 
	d="
M90.462891,238.799072 
	C93.075554,244.334167 91.883873,252.680389 87.933128,255.677002 
	C86.680489,256.627136 84.485985,256.957886 82.869133,256.689301 
	C77.918503,255.866974 72.766197,254.345123 70.280815,249.830856 
	C69.132111,247.744446 70.539406,244.047562 71.265099,241.202560 
	C71.764107,239.246277 73.083961,237.499359 74.562309,234.644135 
	C79.556541,232.758774 85.520607,232.361832 90.462891,238.799072 
M74.110298,242.152283 
	C73.339600,248.116714 75.025421,251.814499 79.248055,252.988647 
	C83.199295,254.087326 86.603531,253.064575 88.598595,249.359543 
	C90.803848,245.264191 89.529266,241.634003 86.179031,238.721497 
	C82.604019,235.613602 78.096092,236.683014 74.110298,242.152283 
z"/>
<path fill="#295378" opacity="1.000000" stroke="none" 
	d="
M191.200119,204.353363 
	C191.163956,204.130707 191.127792,203.908081 191.051987,203.349686 
	C192.656662,201.248123 203.659058,199.918488 205.074814,201.571381 
	C205.770996,202.384186 206.074966,204.173035 205.679703,205.174011 
	C203.529877,210.618378 201.107834,215.955292 198.772003,221.325928 
	C198.710022,221.468430 198.448486,221.602600 198.471176,221.692276 
	C200.528687,229.823517 192.754974,234.768982 191.862442,241.997971 
	C191.591476,244.192566 190.156021,246.243362 188.821289,248.833069 
	C187.933411,250.199432 187.478134,251.092758 187.022858,251.986084 
	C187.012405,252.436661 187.001938,252.887253 186.731476,253.882523 
	C186.314316,255.273270 186.157166,256.119324 186.000000,256.965393 
	C185.828827,256.973297 185.657654,256.981171 184.817139,256.997528 
	C183.872498,257.005157 183.597168,257.004364 183.377136,256.602173 
	C190.082108,238.942719 196.731796,221.684601 203.828903,203.265274 
	C198.913528,203.688782 195.056824,204.021072 191.200119,204.353363 
z"/>
<path fill="#28547A" opacity="1.000000" stroke="none" 
	d="
M183.321838,257.003540 
	C183.597168,257.004364 183.872498,257.005157 184.560440,257.010895 
	C186.321854,270.906097 176.815353,274.398438 165.577637,277.003815 
	C163.557602,277.472137 161.587540,278.156036 158.596680,279.032959 
	C156.743866,277.001068 153.673889,274.414642 154.764542,269.371399 
	C155.270020,268.711029 155.670410,268.379974 156.434036,268.378204 
	C156.797256,270.136627 156.797256,271.565796 156.797256,272.910492 
	C166.023987,275.449585 173.069122,273.791931 177.707199,267.479645 
	C180.029602,264.318878 181.478104,260.516022 183.321838,257.003540 
z"/>
<path fill="#1F4C6F" opacity="1.000000" stroke="none" 
	d="
M101.398743,272.810394 
	C101.167648,272.844788 100.936554,272.879150 100.357697,272.955811 
	C99.675682,265.310059 99.341438,257.622009 99.290672,249.183258 
	C99.706902,245.946411 99.839653,243.460236 99.972404,240.974075 
	C99.650970,233.286041 99.329544,225.598022 99.264305,217.238068 
	C99.348068,215.378815 99.175644,214.191452 99.003220,213.004105 
	C99.000969,211.936295 98.998718,210.868484 99.256264,209.190521 
	C99.672600,207.717911 99.829140,206.855438 99.985687,205.992981 
	C99.985687,205.992981 99.991394,205.494949 99.997070,205.245941 
	C100.002747,204.996948 100.439682,205.002640 100.725662,205.361542 
	C101.202408,206.869247 101.393173,208.018051 101.593613,209.478271 
	C101.695366,210.190216 101.787437,210.590759 101.743637,211.310333 
	C101.653900,212.762787 101.700012,213.896240 101.607155,215.346970 
	C101.557861,216.107727 101.647545,216.551178 101.590729,217.420685 
	C101.551277,220.231232 101.658333,222.615738 101.633919,225.361298 
	C101.600174,226.471466 101.697891,227.220596 101.653244,228.419754 
	C101.579071,241.581131 101.647270,254.292480 101.576233,267.326538 
	C101.532158,268.097656 101.627319,268.546082 101.584549,269.238525 
	C101.430664,270.591797 101.414703,271.701111 101.398743,272.810394 
z"/>
<path fill="#1E4D76" opacity="1.000000" stroke="none" 
	d="
M99.600647,241.068237 
	C99.839653,243.460236 99.706902,245.946411 99.292786,248.714478 
	C99.083908,246.385056 99.156395,243.773727 99.600647,241.068237 
z"/>
<path fill="#1E4D76" opacity="1.000000" stroke="none" 
	d="
M98.746094,213.216904 
	C99.175644,214.191452 99.348068,215.378815 99.266396,216.780273 
	C98.837852,215.806152 98.663406,214.617935 98.746094,213.216904 
z"/>
<path fill="#1E4D76" opacity="1.000000" stroke="none" 
	d="
M99.683792,206.020477 
	C99.829140,206.855438 99.672600,207.717911 99.257256,208.790100 
	C96.742722,207.706253 97.133255,206.756424 99.683792,206.020477 
z"/>
<path fill="#28547A" opacity="1.000000" stroke="none" 
	d="
M186.320923,256.927551 
	C186.157166,256.119324 186.314316,255.273270 186.724182,254.220490 
	C186.865204,254.972397 186.753525,255.931061 186.320923,256.927551 
z"/>
<path fill="#28547A" opacity="1.000000" stroke="none" 
	d="
M187.360962,251.933365 
	C187.478134,251.092758 187.933411,250.199432 188.667206,249.162445 
	C188.530197,249.972733 188.114624,250.926697 187.360962,251.933365 
z"/>
<path fill="#F3F9F9" opacity="1.000000" stroke="none" 
	d="
M101.879501,210.991302 
	C101.787437,210.590759 101.695366,210.190216 101.924355,209.340210 
	C104.155891,207.322693 106.066376,205.754654 107.976860,204.186630 
	C108.435577,204.143127 108.894302,204.099609 109.856506,204.347961 
	C110.678116,204.774643 110.996239,204.909454 111.314362,205.044250 
	C111.649940,206.275635 111.985504,207.507019 112.316994,208.723434 
	C115.234200,206.928406 117.988014,204.454712 121.207138,203.396606 
	C131.619186,199.974335 143.734573,205.246796 147.454559,216.572998 
	C150.459793,225.722946 150.114227,234.613083 145.481354,243.035431 
	C140.470245,252.145416 130.257889,255.371521 119.065857,251.190521 
	C118.340294,250.566071 117.987961,250.467529 117.635620,250.368988 
	C117.635620,250.368988 117.594620,250.342468 117.700394,249.956940 
	C118.011253,246.259308 115.598312,247.180649 113.806351,247.097839 
	C113.274773,248.809708 112.743195,250.521591 111.778305,252.675888 
	C109.413193,254.669083 109.303558,255.997574 111.819183,257.005859 
	C111.961510,259.709656 112.103836,262.413452 111.782715,265.620300 
	C109.202347,268.436890 107.085426,270.750458 104.968506,273.064026 
	C104.527000,273.148163 104.085480,273.232269 103.328926,272.830566 
	C102.583420,271.227997 102.152954,270.111267 101.722481,268.994507 
	C101.627319,268.546082 101.532158,268.097656 101.893295,267.141327 
	C102.892197,254.456345 103.471581,242.280518 103.880379,230.098953 
	C103.903389,229.413300 102.522881,228.680542 101.795616,227.969711 
	C101.697891,227.220596 101.600174,226.471466 101.925789,225.189728 
	C102.145157,222.102936 101.941185,219.548798 101.737213,216.994644 
	C101.647545,216.551178 101.557861,216.107727 101.933357,215.308685 
	C104.801392,213.295044 104.721260,211.962265 101.879501,210.991302 
M116.472694,215.482315 
	C116.472694,215.482315 116.472221,215.576416 115.686096,215.266373 
	C111.957169,216.642532 109.587105,224.789764 112.152176,228.657806 
	C112.102058,229.106552 112.051941,229.555298 111.396690,230.091827 
	C111.118919,230.526138 110.841141,230.960449 110.563362,231.394760 
	C111.119736,231.581818 111.676117,231.768890 112.377144,232.173538 
	C112.377144,232.173538 112.234482,232.392441 112.096252,233.293777 
	C112.179733,236.282471 111.256989,239.877701 116.624008,240.181549 
	C117.122032,240.680435 117.620049,241.179306 118.391975,242.311249 
	C118.811707,242.462982 119.231445,242.614700 119.835037,242.701813 
	C119.835037,242.701813 119.981781,242.830048 120.417488,243.440369 
	C121.136948,243.552689 121.856407,243.665009 122.826668,243.670502 
	C122.826668,243.670502 123.023247,243.859344 123.119507,244.559402 
	C126.053329,247.091660 127.982025,244.899124 130.182831,242.831924 
	C130.182831,242.831924 130.508301,242.823517 131.125778,242.756561 
	C131.402237,242.465439 131.678711,242.174332 132.182449,241.449600 
	C132.423325,241.210831 132.711639,241.067459 133.825989,241.018463 
	C139.707001,239.340103 141.889236,226.369659 136.921982,220.555923 
	C136.893616,220.388412 136.865265,220.220886 137.397903,219.647751 
	C136.071121,216.887970 135.080429,212.058075 133.351166,211.777328 
	C129.077789,211.083511 124.466026,212.473969 119.783188,213.256607 
	C119.783188,213.256607 119.481842,213.186478 118.645485,213.087616 
	C117.952118,213.891235 117.258751,214.694855 116.472694,215.482315 
z"/>
<path fill="#E9F4F6" opacity="1.000000" stroke="none" 
	d="
M183.377136,256.602173 
	C181.478104,260.516022 180.029602,264.318878 177.707199,267.479645 
	C173.069122,273.791931 166.023987,275.449585 156.797256,272.910492 
	C156.797256,271.565796 156.797256,270.136627 156.700302,268.347534 
	C156.785355,266.754150 156.967361,265.520721 157.165924,264.175049 
	C159.325500,264.175049 161.233002,264.175049 163.918030,264.130127 
	C165.526520,263.749298 166.357452,263.413391 167.188385,263.077515 
	C172.945801,259.566681 174.149704,255.365707 171.675018,249.446457 
	C166.494873,237.055984 161.547958,224.568100 156.488617,212.126999 
	C155.501495,209.699615 154.438950,207.302902 153.393570,204.850754 
	C159.106476,201.086899 164.846481,202.891815 167.048508,209.206406 
	C169.737778,216.918274 172.485306,224.612350 175.393417,232.243332 
	C175.985596,233.797195 177.402954,235.036606 178.877731,237.005493 
	C180.264420,234.954041 181.215622,233.546875 182.425354,231.554367 
	C182.832092,230.329285 182.980270,229.689514 183.128448,229.049774 
	C183.365662,228.550003 183.602875,228.050232 184.017624,226.997620 
	C184.283524,226.020584 184.371872,225.596405 184.460220,225.172241 
	C184.917480,223.988251 185.374756,222.804260 186.024429,220.983307 
	C187.652695,216.058975 189.088547,211.771576 190.524399,207.484192 
	C190.524399,207.484192 190.508377,207.397842 190.707489,207.185394 
	C191.068848,206.663177 191.098618,206.341156 190.995926,206.006882 
	C191.092621,205.644989 191.189316,205.283096 191.243073,204.637283 
	C195.056824,204.021072 198.913528,203.688782 203.828903,203.265274 
	C196.731796,221.684601 190.082108,238.942719 183.377136,256.602173 
z"/>
<path fill="#335D7B" opacity="1.000000" stroke="none" 
	d="
M190.138977,207.466309 
	C189.088547,211.771576 187.652695,216.058975 186.026978,220.663544 
	C187.142578,216.469971 188.448059,211.959198 190.138977,207.466309 
z"/>
<path fill="#ECFBFE" opacity="1.000000" stroke="none" 
	d="
M105.416412,273.175781 
	C107.085426,270.750458 109.202347,268.436890 111.676926,266.061462 
	C112.132561,268.125214 112.230530,270.250916 112.370491,273.287537 
	C109.973419,273.287537 107.918869,273.287537 105.416412,273.175781 
z"/>
<path fill="#ECFBFE" opacity="1.000000" stroke="none" 
	d="
M107.561310,204.116608 
	C106.066376,205.754654 104.155891,207.322693 101.914673,209.028809 
	C101.393173,208.018051 101.202408,206.869247 100.944138,205.364426 
	C102.966339,204.687805 105.056046,204.367188 107.561310,204.116608 
z"/>
<path fill="#DDEEF6" opacity="1.000000" stroke="none" 
	d="
M113.924698,247.402542 
	C115.598312,247.180649 118.011253,246.259308 117.706436,249.981262 
	C116.418808,249.496506 115.230919,248.601883 113.924698,247.402542 
z"/>
<path fill="#ECFBFE" opacity="1.000000" stroke="none" 
	d="
M111.889221,256.609192 
	C109.303558,255.997574 109.413193,254.669083 111.685875,253.061829 
	C112.004250,254.074402 111.981750,255.143478 111.889221,256.609192 
z"/>
<path fill="#0E4B82" opacity="1.000000" stroke="none" 
	d="
M149.957001,212.514252 
	C149.451767,211.653046 149.254410,210.809326 149.057068,209.965607 
	C149.459671,209.910995 149.862289,209.856369 150.264893,209.801743 
	C150.264893,210.711746 150.264893,211.621750 149.957001,212.514252 
z"/>
<path fill="#ECFBFE" opacity="1.000000" stroke="none" 
	d="
M101.584549,269.238525 
	C102.152954,270.111267 102.583420,271.227997 103.020676,272.681122 
	C102.668213,272.989014 102.308960,272.960541 101.674225,272.871216 
	C101.414703,271.701111 101.430664,270.591797 101.584549,269.238525 
z"/>
<path fill="#28547A" opacity="1.000000" stroke="none" 
	d="
M166.836182,263.046173 
	C166.357452,263.413391 165.526520,263.749298 164.350739,264.021240 
	C164.831894,263.643127 165.657928,263.328979 166.836182,263.046173 
z"/>
<path fill="#335D7B" opacity="1.000000" stroke="none" 
	d="
M184.186020,225.211761 
	C184.371872,225.596405 184.283524,226.020584 184.011108,226.715424 
	C183.855316,226.407822 183.883560,225.829559 184.186020,225.211761 
z"/>
<path fill="#335D7B" opacity="1.000000" stroke="none" 
	d="
M182.842957,229.246246 
	C182.980270,229.689514 182.832092,230.329285 182.436386,231.195129 
	C182.311737,230.761719 182.434601,230.102219 182.842957,229.246246 
z"/>
<path fill="#DDEEF6" opacity="1.000000" stroke="none" 
	d="
M117.769814,250.611115 
	C117.987961,250.467529 118.340294,250.566071 118.811447,250.926788 
	C118.588181,251.077057 118.246094,250.965149 117.769814,250.611115 
z"/>
<path fill="#0E4B82" opacity="1.000000" stroke="none" 
	d="
M178.996704,228.995728 
	C179.087448,228.959549 179.181488,228.927643 179.142029,228.951065 
	C179.008545,229.006409 179.000000,229.000000 178.996704,228.995728 
z"/>
<path fill="#335D7B" opacity="1.000000" stroke="none" 
	d="
M190.786835,206.170654 
	C191.098618,206.341156 191.068848,206.663177 190.736816,207.152679 
	C190.570587,206.999771 190.574158,206.667099 190.786835,206.170654 
z"/>
<path fill="#ECFBFE" opacity="1.000000" stroke="none" 
	d="
M111.239082,204.752426 
	C110.996239,204.909454 110.678116,204.774643 110.191391,204.441406 
	C110.403137,204.315521 110.783470,204.388062 111.239082,204.752426 
z"/>
<path fill="#D9EDF5" opacity="1.000000" stroke="none" 
	d="
M74.239349,241.766205 
	C78.096092,236.683014 82.604019,235.613602 86.179031,238.721497 
	C89.529266,241.634003 90.803848,245.264191 88.598595,249.359543 
	C86.603531,253.064575 83.199295,254.087326 79.248055,252.988647 
	C75.025421,251.814499 73.339600,248.116714 74.239349,241.766205 
M82.119865,240.974899 
	C79.415184,240.910187 76.721046,240.499680 76.883568,244.790024 
	C76.997520,247.797958 77.604530,250.771606 80.783241,250.450119 
	C82.983971,250.227539 85.698700,248.024155 86.839111,245.962189 
	C88.763847,242.482101 85.755287,241.517441 82.119865,240.974899 
z"/>
<path fill="#ECFBFE" opacity="1.000000" stroke="none" 
	d="
M101.653252,228.419754 
	C102.522881,228.680542 103.903389,229.413300 103.880379,230.098953 
	C103.471581,242.280518 102.892197,254.456345 102.032532,266.818604 
	C101.647270,254.292480 101.579071,241.581131 101.653252,228.419754 
z"/>
<path fill="#ECFBFE" opacity="1.000000" stroke="none" 
	d="
M101.590721,217.420685 
	C101.941185,219.548798 102.145157,222.102936 102.057251,224.828674 
	C101.658333,222.615738 101.551277,220.231232 101.590721,217.420685 
z"/>
<path fill="#ECFBFE" opacity="1.000000" stroke="none" 
	d="
M101.743637,211.310333 
	C104.721260,211.962265 104.801392,213.295044 102.072327,214.991394 
	C101.700012,213.896240 101.653900,212.762787 101.743637,211.310333 
z"/>
<path fill="#164C7D" opacity="1.000000" stroke="none" 
	d="
M112.234482,232.392441 
	C112.234482,232.392441 112.377144,232.173538 112.368088,231.733582 
	C112.239967,230.863770 112.120903,230.433899 112.001831,230.004044 
	C112.051941,229.555298 112.102058,229.106552 112.181168,227.952942 
	C113.630844,223.357513 115.051537,219.466965 116.472229,215.576416 
	C116.472221,215.576416 116.472694,215.482315 116.813034,215.391815 
	C117.929520,214.596375 118.705681,213.891418 119.481842,213.186462 
	C119.481842,213.186478 119.783188,213.256607 120.340942,213.158051 
	C127.803566,211.762482 133.467163,213.294174 136.836899,220.053345 
	C136.865265,220.220886 136.893616,220.388412 137.066559,221.180099 
	C139.251892,228.952301 137.745621,235.331741 133.047409,241.019501 
	C132.711639,241.067459 132.423325,241.210831 131.769714,241.721222 
	C131.074081,242.269730 130.791183,242.546631 130.508301,242.823517 
	C130.508301,242.823517 130.182831,242.831924 129.699097,242.967789 
	C127.151314,243.355545 125.087280,243.607452 123.023247,243.859344 
	C123.023247,243.859344 122.826668,243.670502 122.442612,243.472656 
	C121.366295,243.126541 120.674042,242.978287 119.981781,242.830048 
	C119.981781,242.830048 119.835037,242.701813 119.556625,242.465485 
	C118.891495,242.045486 118.504784,241.861847 118.118065,241.678192 
	C117.620049,241.179306 117.122032,240.680435 116.273956,239.745209 
	C114.694092,237.003403 113.464287,234.697922 112.234482,232.392441 
z"/>
<path fill="#DDEEF6" opacity="1.000000" stroke="none" 
	d="
M137.117401,219.850555 
	C133.467163,213.294174 127.803566,211.762482 120.444473,213.043121 
	C124.466026,212.473969 129.077789,211.083511 133.351166,211.777328 
	C135.080429,212.058075 136.071121,216.887970 137.117401,219.850555 
z"/>
<path fill="#DDEEF6" opacity="1.000000" stroke="none" 
	d="
M133.436707,241.018982 
	C137.745621,235.331741 139.251892,228.952301 137.203812,221.394836 
	C141.889236,226.369659 139.707001,239.340103 133.436707,241.018982 
z"/>
<path fill="#DDEEF6" opacity="1.000000" stroke="none" 
	d="
M116.079163,215.421387 
	C115.051537,219.466965 113.630844,223.357513 112.096375,227.622711 
	C109.587105,224.789764 111.957169,216.642532 116.079163,215.421387 
z"/>
<path fill="#DDEEF6" opacity="1.000000" stroke="none" 
	d="
M112.165375,232.843109 
	C113.464287,234.697922 114.694092,237.003403 116.025558,239.644943 
	C111.256989,239.877701 112.179733,236.282471 112.165375,232.843109 
z"/>
<path fill="#DDEEF6" opacity="1.000000" stroke="none" 
	d="
M123.071381,244.209381 
	C125.087280,243.607452 127.151314,243.355545 129.604553,243.100327 
	C127.982025,244.899124 126.053329,247.091660 123.071381,244.209381 
z"/>
<path fill="#DDEEF6" opacity="1.000000" stroke="none" 
	d="
M119.063660,213.137039 
	C118.705681,213.891418 117.929520,214.596375 116.859375,215.399902 
	C117.258751,214.694855 117.952118,213.891235 119.063660,213.137039 
z"/>
<path fill="#DDEEF6" opacity="1.000000" stroke="none" 
	d="
M111.699265,230.047943 
	C112.120903,230.433899 112.239967,230.863770 112.295761,231.624786 
	C111.676117,231.768890 111.119736,231.581818 110.563362,231.394760 
	C110.841141,230.960449 111.118919,230.526138 111.699265,230.047943 
z"/>
<path fill="#DDEEF6" opacity="1.000000" stroke="none" 
	d="
M120.199631,243.135208 
	C120.674042,242.978287 121.366295,243.126541 122.317215,243.526062 
	C121.856407,243.665009 121.136948,243.552689 120.199631,243.135208 
z"/>
<path fill="#DDEEF6" opacity="1.000000" stroke="none" 
	d="
M130.817047,242.790039 
	C130.791183,242.546631 131.074081,242.269730 131.656067,241.938019 
	C131.678711,242.174332 131.402237,242.465439 130.817047,242.790039 
z"/>
<path fill="#DDEEF6" opacity="1.000000" stroke="none" 
	d="
M118.255020,241.994720 
	C118.504784,241.861847 118.891495,242.045486 119.464699,242.497772 
	C119.231445,242.614700 118.811707,242.462982 118.255020,241.994720 
z"/>
<path fill="#FAFDF7" opacity="1.000000" stroke="none" 
	d="
M82.534042,240.986908 
	C85.755287,241.517441 88.763847,242.482101 86.839111,245.962189 
	C85.698700,248.024155 82.983971,250.227539 80.783241,250.450119 
	C77.604530,250.771606 76.997520,247.797958 76.883568,244.790024 
	C76.721046,240.499680 79.415184,240.910187 82.534042,240.986908 
z"/>
</svg>