<?xml version="1.0" standalone="no"?>
<!DOCTYPE svg PUBLIC "-//W3C//DTD SVG 20010904//EN"
 "http://www.w3.org/TR/2001/REC-SVG-20010904/DTD/svg10.dtd">
<svg version="1.0" xmlns="http://www.w3.org/2000/svg"
 width="300.000000pt" height="264.000000pt" viewBox="0 0 300.000000 264.000000"
 preserveAspectRatio="xMidYMid meet">

<g transform="translate(0.000000,264.000000) scale(0.100000,-0.100000)"
fill="#000000" stroke="none">
<path d="M1943 2542 c-100 -37 -180 -68 -179 -70 8 -7 360 -132 373 -132 9 0
91 27 182 60 91 33 172 63 180 65 8 3 12 8 9 10 -8 9 -359 135 -371 134 -7 0
-94 -30 -194 -67z"/>
<path d="M1635 2430 c-44 -17 -131 -49 -194 -72 l-113 -41 190 -69 191 -69
185 67 c102 37 186 70 186 74 0 4 -75 34 -167 68 -93 33 -175 63 -183 66 -8 3
-51 -8 -95 -24z"/>
<path d="M2455 2419 c-44 -16 -131 -48 -192 -70 l-113 -41 0 -229 c0 -126 3
-229 8 -229 4 0 93 31 197 69 l190 69 3 231 c1 127 -1 231 -5 231 -5 -1 -44
-14 -88 -31z"/>
<path d="M1300 2065 c0 -212 2 -233 18 -240 55 -22 371 -135 376 -135 3 0 5
105 4 232 l-3 233 -115 41 c-63 23 -152 56 -197 72 l-83 31 0 -234z"/>
<path d="M1920 2226 l-195 -73 -3 -232 c-2 -185 0 -232 10 -228 7 2 97 35 201
72 l187 68 0 234 c0 128 -1 233 -2 232 -2 -1 -91 -34 -198 -73z m-11 -197 c59
-21 65 -76 11 -104 -36 -19 -63 -19 -99 0 -53 27 -51 77 2 100 39 17 46 18 86
4z"/>
<path d="M2343 1878 l-193 -71 0 -228 c0 -129 4 -229 9 -229 5 0 94 31 198 69
l188 68 3 232 c1 127 -1 231 -5 230 -5 0 -95 -32 -200 -71z"/>
<path d="M1093 1732 c-100 -37 -179 -70 -175 -73 10 -8 354 -132 367 -132 12
0 386 135 383 138 -8 7 -371 135 -381 134 -6 0 -94 -30 -194 -67z"/>
<path d="M1913 1722 l-183 -67 0 -232 0 -232 78 28 c42 16 130 48 195 71 l117
43 0 228 c0 177 -3 229 -12 228 -7 0 -95 -30 -195 -67z"/>
<path d="M880 1408 l0 -234 195 -70 195 -71 0 232 c0 212 -2 233 -17 240 -10
4 -90 33 -178 65 -88 32 -168 61 -177 65 -17 7 -18 -8 -18 -227z"/>
<path d="M1605 1609 c-44 -16 -131 -48 -192 -70 l-113 -41 0 -229 c0 -126 3
-229 8 -229 4 0 93 31 197 69 l190 69 3 231 c1 127 -1 231 -5 231 -5 -1 -44
-14 -88 -31z"/>
<path d="M880 906 l0 -233 148 -53 c81 -29 168 -61 195 -71 l47 -19 0 234 0
234 -87 32 c-49 18 -136 49 -195 71 l-108 38 0 -233z"/>
<path d="M1493 1068 l-193 -71 0 -228 c0 -129 4 -229 9 -229 5 0 94 31 198 69
l188 68 3 232 c1 127 -1 231 -5 230 -5 0 -95 -32 -200 -71z"/>
</g>
</svg>
