<svg xmlns="http://www.w3.org/2000/svg" width="512" height="512" viewBox="0 0 512 512" version="1.1"><path d="M 0 256 L 0 512 180.250 511.855 C 279.387 511.775, 356.225 511.380, 351 510.978 C 324.955 508.972, 299.328 499.612, 277.544 484.148 C 262.004 473.116, 244.396 453.304, 234.986 436.263 L 232.646 432.026 123.396 431.763 C 14.819 431.502, 14.129 431.487, 11.385 429.438 C 9.866 428.304, 7.696 426.134, 6.562 424.615 L 4.500 421.854 4.238 218.828 C 4.059 79.849, 4.306 14.577, 5.022 11.917 C 6.412 6.755, 9.622 3.229, 14.500 1.503 C 18.485 0.093, 18.465 0.088, 9.250 0.044 L 0 0 0 256 M 335.316 1.449 C 337.415 2.197, 340.065 3.640, 341.204 4.655 C 346.132 9.044, 346 5.948, 346 116.799 L 346 220.661 361.250 220.656 C 387.359 220.648, 406.038 224.961, 428.270 236.134 C 459.376 251.766, 485.649 280.587, 497.976 312.602 C 522.804 377.078, 500.201 448.675, 442.858 487.196 C 423.256 500.364, 398.168 509.018, 374 510.950 C 368.526 511.387, 395.752 511.771, 438.250 511.855 L 512 512 512 256 L 512 0 421.750 0.044 C 344.384 0.082, 332.045 0.282, 335.316 1.449 M 34.667 30.667 C 34.300 31.033, 34 54.433, 34 82.667 L 34 134 175 134 L 316 134 316 82 L 316 30 175.667 30 C 98.483 30, 35.033 30.300, 34.667 30.667 M 76.500 68.488 C 66.288 72.150, 63.899 85.738, 72.088 93.585 L 75.130 96.500 130.815 96.760 C 184.636 97.012, 186.607 96.955, 189.696 95.058 C 194.470 92.126, 196.433 88.480, 196.402 82.598 C 196.370 76.328, 194.006 71.602, 189.733 69.267 C 186.773 67.649, 182.028 67.481, 133.500 67.277 C 89.572 67.091, 79.815 67.299, 76.500 68.488 M 241.395 68.023 C 229.313 71.754, 227.879 89.749, 239.198 95.602 C 243 97.569, 265.777 97.538, 270.510 95.560 C 280.120 91.545, 280.669 75.416, 271.404 69.345 C 269.276 67.951, 266.175 67.527, 256.606 67.323 C 249.948 67.181, 243.103 67.496, 241.395 68.023 M 34 216 L 34 268 144.115 268 L 254.230 268 262.438 260.231 C 275.602 247.770, 294.965 235.580, 311.250 229.501 L 316 227.728 316 195.864 L 316 164 175 164 L 34 164 34 216 M 79 203.905 C 73.415 205.061, 70.961 206.872, 68.937 211.331 C 65.730 218.393, 66.962 224.934, 72.452 230 L 75.161 232.500 132.015 232.500 L 188.869 232.500 191.950 229.548 C 199.058 222.738, 197.864 210.380, 189.614 205.386 C 186.678 203.608, 183.520 203.491, 134.500 203.340 C 105.900 203.252, 80.925 203.507, 79 203.905 M 242.662 203.912 C 231.723 206.197, 227.766 221.223, 235.948 229.412 L 239.033 232.500 253.426 232.822 C 265.195 233.086, 268.391 232.849, 270.954 231.524 C 280.522 226.576, 280.423 210.406, 270.794 205.377 C 267.086 203.440, 249.345 202.516, 242.662 203.912 M 351 250.682 C 298.038 256.161, 255.695 296.963, 247.941 349.990 C 246.299 361.218, 247.270 382.064, 249.933 392.797 C 265.517 455.591, 328.870 493.848, 391 477.982 C 432.350 467.423, 464.676 434.666, 475.067 392.797 C 477.730 382.064, 478.701 361.218, 477.059 349.990 C 471.424 311.450, 448.238 279.507, 413.500 262.425 C 393.411 252.546, 371.953 248.515, 351 250.682 M 346.500 277.084 C 322.812 281.752, 302.742 295.078, 289.997 314.602 C 285.998 320.728, 285 323.100, 285 326.480 C 285 334.463, 292.193 341.333, 300.549 341.333 C 305.806 341.333, 309.251 339.195, 312.799 333.727 C 317.512 326.464, 329.219 315.423, 335.649 312.177 C 345.346 307.282, 352.991 305.715, 364.500 306.263 C 376.292 306.824, 383.208 309.096, 393.241 315.703 C 399.557 319.862, 407 327.443, 407 329.717 C 407 330.273, 404.863 331.526, 402.250 332.501 C 395.800 334.908, 394 336.679, 394 340.617 C 394 343.761, 395.172 344.814, 417.750 361.953 C 430.813 371.869, 442.428 379.986, 443.561 379.991 C 445.535 380, 449.992 376.695, 450.008 375.211 C 450.012 374.820, 451.583 362.125, 453.500 347 C 455.417 331.875, 456.988 318.938, 456.992 318.250 C 457.005 316.153, 453.146 313, 450.566 313 C 449.227 313, 445.391 314.189, 442.041 315.642 C 438.691 317.094, 435.809 318.107, 435.637 317.892 C 435.465 317.676, 433.952 315.467, 432.274 312.983 C 421.399 296.875, 403.486 284.152, 384.353 278.944 C 375.334 276.489, 354.671 275.474, 346.500 277.084 M 34 350 L 34 402 127.500 402 C 201.652 402, 220.993 401.741, 220.965 400.750 C 220.946 400.063, 220.267 396.575, 219.457 393 C 217.319 383.567, 216.485 359.353, 217.924 348.500 C 219.986 332.946, 223.770 319.850, 230.877 303.667 C 232.045 301.009, 233 298.646, 233 298.417 C 233 298.188, 188.225 298, 133.500 298 L 34 298 34 350 M 75.500 340.941 C 70.958 342.849, 66.977 349.363, 67.022 354.815 C 67.059 359.397, 70.572 365.720, 74.171 367.684 C 77.272 369.376, 81.226 369.500, 132 369.500 C 183.629 369.500, 186.664 369.401, 189.614 367.614 C 197.863 362.620, 199.058 350.263, 191.951 343.452 L 188.870 340.500 133.185 340.301 C 102.558 340.191, 76.600 340.479, 75.500 340.941 M 277.169 353.750 C 275.368 355.286, 274.674 359.070, 271.498 384.667 C 268.439 409.323, 268.082 414.161, 269.189 415.954 C 271.289 419.351, 274.571 419.531, 281.624 416.635 C 285.153 415.186, 288.417 414, 288.878 414 C 289.339 414, 291.386 416.513, 293.425 419.586 C 310.166 444.799, 343.483 459.453, 374.104 455.071 C 399.624 451.419, 419.240 439.476, 434.172 418.500 C 439.493 411.025, 440.589 406.831, 438.589 401.595 C 436.818 396.956, 433.546 394.050, 427.724 391.945 C 421.899 389.838, 416.523 392.081, 412.013 398.500 C 406.035 407.009, 395.994 416.363, 389.208 419.746 C 372.547 428.052, 353.283 427.817, 336.196 419.100 C 331.424 416.666, 318 404.415, 318 402.495 C 318 401.801, 320.491 400.221, 323.534 398.986 C 329.523 396.556, 331.298 394.413, 330.812 390.201 C 330.555 387.980, 326.347 384.343, 307.147 369.750 C 292.659 358.738, 282.925 352, 281.507 352 C 280.250 352, 278.298 352.788, 277.169 353.750" stroke="none" fill="#040404" fill-rule="evenodd"/><path d="M 14.500 1.497 C 9.620 3.231, 6.411 6.758, 5.022 11.917 C 4.306 14.577, 4.059 79.849, 4.238 218.828 L 4.500 421.854 6.562 424.615 C 7.696 426.134, 9.866 428.304, 11.385 429.438 C 14.129 431.487, 14.819 431.502, 123.396 431.763 L 232.646 432.026 234.986 436.263 C 244.396 453.304, 262.004 473.116, 277.544 484.148 C 295.154 496.649, 317.748 506.051, 338.500 509.514 C 358.577 512.864, 383.212 511.354, 403.236 505.546 C 452.058 491.385, 490.855 451.331, 503.533 402 C 512.314 367.834, 507.580 327.641, 491.296 298.110 C 470.878 261.081, 439.338 235.916, 399.905 225.193 C 387.677 221.867, 377.316 220.651, 361.263 220.656 L 346.027 220.661 345.763 115.404 C 345.500 10.166, 345.500 10.146, 343.395 7.323 C 342.238 5.770, 339.763 3.600, 337.895 2.500 C 334.543 0.525, 332.506 0.497, 176.500 0.288 C 42.086 0.107, 17.903 0.287, 14.500 1.497 M 34.667 30.667 C 34.300 31.033, 34 54.433, 34 82.667 L 34 134 175 134 L 316 134 316 82 L 316 30 175.667 30 C 98.483 30, 35.033 30.300, 34.667 30.667 M 76.500 68.488 C 66.288 72.150, 63.899 85.738, 72.088 93.585 L 75.130 96.500 130.815 96.760 C 184.636 97.012, 186.607 96.955, 189.696 95.058 C 194.470 92.126, 196.433 88.480, 196.402 82.598 C 196.370 76.328, 194.006 71.602, 189.733 69.267 C 186.773 67.649, 182.028 67.481, 133.500 67.277 C 89.572 67.091, 79.815 67.299, 76.500 68.488 M 241.395 68.023 C 229.313 71.754, 227.879 89.749, 239.198 95.602 C 243 97.569, 265.777 97.538, 270.510 95.560 C 280.120 91.545, 280.669 75.416, 271.404 69.345 C 269.276 67.951, 266.175 67.527, 256.606 67.323 C 249.948 67.181, 243.103 67.496, 241.395 68.023 M 34 216 L 34 268 144.115 268 L 254.230 268 262.438 260.231 C 275.602 247.770, 294.965 235.580, 311.250 229.501 L 316 227.728 316 195.864 L 316 164 175 164 L 34 164 34 216 M 79 203.905 C 73.415 205.061, 70.961 206.872, 68.937 211.331 C 65.730 218.393, 66.962 224.934, 72.452 230 L 75.161 232.500 132.015 232.500 L 188.869 232.500 191.950 229.548 C 199.058 222.738, 197.864 210.380, 189.614 205.386 C 186.678 203.608, 183.520 203.491, 134.500 203.340 C 105.900 203.252, 80.925 203.507, 79 203.905 M 242.662 203.912 C 231.723 206.197, 227.766 221.223, 235.948 229.412 L 239.033 232.500 253.426 232.822 C 265.195 233.086, 268.391 232.849, 270.954 231.524 C 280.522 226.576, 280.423 210.406, 270.794 205.377 C 267.086 203.440, 249.345 202.516, 242.662 203.912 M 351 250.682 C 298.038 256.161, 255.695 296.963, 247.941 349.990 C 246.299 361.218, 247.270 382.064, 249.933 392.797 C 265.517 455.591, 328.870 493.848, 391 477.982 C 432.350 467.423, 464.676 434.666, 475.067 392.797 C 477.730 382.064, 478.701 361.218, 477.059 349.990 C 471.424 311.450, 448.238 279.507, 413.500 262.425 C 393.411 252.546, 371.953 248.515, 351 250.682 M 346.500 277.084 C 322.812 281.752, 302.742 295.078, 289.997 314.602 C 285.998 320.728, 285 323.100, 285 326.480 C 285 334.463, 292.193 341.333, 300.549 341.333 C 305.806 341.333, 309.251 339.195, 312.799 333.727 C 317.512 326.464, 329.219 315.423, 335.649 312.177 C 345.346 307.282, 352.991 305.715, 364.500 306.263 C 376.292 306.824, 383.208 309.096, 393.241 315.703 C 399.557 319.862, 407 327.443, 407 329.717 C 407 330.273, 404.863 331.526, 402.250 332.501 C 395.800 334.908, 394 336.679, 394 340.617 C 394 343.761, 395.172 344.814, 417.750 361.953 C 430.813 371.869, 442.428 379.986, 443.561 379.991 C 445.535 380, 449.992 376.695, 450.008 375.211 C 450.012 374.820, 451.583 362.125, 453.500 347 C 455.417 331.875, 456.988 318.938, 456.992 318.250 C 457.005 316.153, 453.146 313, 450.566 313 C 449.227 313, 445.391 314.189, 442.041 315.642 C 438.691 317.094, 435.809 318.107, 435.637 317.892 C 435.465 317.676, 433.952 315.467, 432.274 312.983 C 421.399 296.875, 403.486 284.152, 384.353 278.944 C 375.334 276.489, 354.671 275.474, 346.500 277.084 M 34 350 L 34 402 127.500 402 C 201.652 402, 220.993 401.741, 220.965 400.750 C 220.946 400.063, 220.267 396.575, 219.457 393 C 217.319 383.567, 216.485 359.353, 217.924 348.500 C 219.986 332.946, 223.770 319.850, 230.877 303.667 C 232.045 301.009, 233 298.646, 233 298.417 C 233 298.188, 188.225 298, 133.500 298 L 34 298 34 350 M 75.500 340.941 C 70.958 342.849, 66.977 349.363, 67.022 354.815 C 67.059 359.397, 70.572 365.720, 74.171 367.684 C 77.272 369.376, 81.226 369.500, 132 369.500 C 183.629 369.500, 186.664 369.401, 189.614 367.614 C 197.863 362.620, 199.058 350.263, 191.951 343.452 L 188.870 340.500 133.185 340.301 C 102.558 340.191, 76.600 340.479, 75.500 340.941 M 277.169 353.750 C 275.368 355.286, 274.674 359.070, 271.498 384.667 C 268.439 409.323, 268.082 414.161, 269.189 415.954 C 271.289 419.351, 274.571 419.531, 281.624 416.635 C 285.153 415.186, 288.417 414, 288.878 414 C 289.339 414, 291.386 416.513, 293.425 419.586 C 310.166 444.799, 343.483 459.453, 374.104 455.071 C 399.624 451.419, 419.240 439.476, 434.172 418.500 C 439.493 411.025, 440.589 406.831, 438.589 401.595 C 436.818 396.956, 433.546 394.050, 427.724 391.945 C 421.899 389.838, 416.523 392.081, 412.013 398.500 C 406.035 407.009, 395.994 416.363, 389.208 419.746 C 372.547 428.052, 353.283 427.817, 336.196 419.100 C 331.424 416.666, 318 404.415, 318 402.495 C 318 401.801, 320.491 400.221, 323.534 398.986 C 329.523 396.556, 331.298 394.413, 330.812 390.201 C 330.555 387.980, 326.347 384.343, 307.147 369.750 C 292.659 358.738, 282.925 352, 281.507 352 C 280.250 352, 278.298 352.788, 277.169 353.750" stroke="none" fill="#fcfcfc" fill-rule="evenodd"/></svg>