<svg xmlns="http://www.w3.org/2000/svg" width="512" height="512" viewBox="0 0 512 512" version="1.1"><path d="M 11.241 1.995 C 9.448 3.088, 7.088 5.448, 5.995 7.241 C 4.029 10.465, 4.007 12.708, 4.004 216.102 L 4 421.704 6.250 425.010 C 7.487 426.828, 9.770 429.257, 11.323 430.408 C 14.142 432.497, 14.313 432.500, 123.510 432.763 C 230.712 433.021, 232.886 433.064, 233.489 434.964 C 234.556 438.328, 244.011 452.192, 250.786 460.329 C 259.046 470.250, 270.655 480.494, 282.357 488.190 C 306.024 503.755, 327.918 510.688, 356.608 511.702 C 390.040 512.884, 416.747 505.392, 443.929 487.205 C 476.059 465.707, 497.853 433.038, 506.109 394 C 509.012 380.270, 509.270 354.323, 506.643 340.172 C 497.201 289.309, 461.224 246.262, 413.500 228.727 C 395.926 222.270, 381.884 219.859, 361.768 219.845 L 347.036 219.835 346.768 115.668 C 346.503 12.632, 346.478 11.462, 344.446 8.003 C 343.316 6.080, 340.887 3.493, 339.048 2.253 L 335.704 -0 175.102 0.004 C 16.610 0.007, 14.457 0.034, 11.241 1.995 M 35 82.500 L 35 134 175 134 L 315 134 315 82.500 L 315 31 175 31 L 35 31 35 82.500 M 73.299 68.960 C 68.873 71.658, 66.613 76.389, 66.675 82.828 C 66.730 88.564, 68.411 91.725, 73.385 95.438 C 76.097 97.463, 77.148 97.500, 132 97.500 C 186.852 97.500, 187.903 97.463, 190.615 95.438 C 195.634 91.691, 197.286 88.561, 197.286 82.797 C 197.286 76.323, 195.041 71.605, 190.701 68.960 C 187.628 67.085, 185.285 67.007, 132 67.007 C 78.715 67.007, 76.372 67.085, 73.299 68.960 M 237.841 68.524 C 233.764 70.739, 230.890 76.167, 230.860 81.710 C 230.829 87.488, 232.004 90.774, 235.144 93.683 C 238.995 97.252, 242.491 98, 255.315 97.998 C 264.939 97.997, 268.221 97.629, 270.929 96.248 C 275.903 93.712, 278.266 89.935, 278.720 83.791 C 279.197 77.340, 277.014 72.552, 272.102 69.270 C 268.962 67.172, 267.635 67.003, 254.602 67.040 C 244.267 67.069, 239.790 67.466, 237.841 68.524 M 35 216 L 35 267 144.615 267 L 254.230 267 262.646 259.033 C 275.583 246.788, 291.846 236.675, 312.250 228.187 L 315 227.043 315 196.021 L 315 165 175 165 L 35 165 35 216 M 74.034 204.752 C 63.912 209.858, 64.157 227.525, 74.417 232.394 C 77.396 233.807, 84.301 234, 132.015 234 C 185.188 234, 186.299 233.960, 189.954 231.906 C 192.003 230.754, 194.491 228.438, 195.483 226.760 C 198.056 222.405, 197.884 214.166, 195.127 209.706 C 190.889 202.849, 192.315 203, 131.849 203.002 C 82.097 203.003, 77.207 203.151, 74.034 204.752 M 238.256 204.645 C 230.232 208.600, 228.086 221.948, 234.365 228.845 C 238.441 233.322, 241.117 234, 254.700 233.998 C 264.910 233.997, 268.194 233.643, 270.929 232.248 C 275.903 229.712, 278.266 225.935, 278.720 219.791 C 279.197 213.340, 277.014 208.552, 272.102 205.270 C 268.980 203.184, 267.600 203.002, 255.102 203.023 C 244.691 203.040, 240.739 203.421, 238.256 204.645 M 342.500 252.593 C 287.052 263.018, 247.854 309.976, 247.909 365.911 C 247.939 396.466, 258.280 422.581, 278.994 444.411 C 324.920 492.815, 400.080 492.815, 446.006 444.411 C 466.720 422.581, 477.061 396.466, 477.091 365.911 C 477.132 324.660, 456.884 289.151, 420.500 266.666 C 412.960 262.006, 396.815 255.670, 387 253.519 C 376.333 251.180, 352.636 250.687, 342.500 252.593 M 348.500 276.109 C 330.134 278.758, 313.540 287.275, 300 301.002 C 285.986 315.210, 281.176 326.646, 286.161 333.908 C 290.224 339.828, 293.375 341.500, 300.468 341.500 C 307.769 341.500, 309.112 340.622, 314.998 332 C 322.882 320.451, 334.011 312.378, 347.424 308.479 C 355.522 306.125, 372.170 306.803, 380.461 309.825 C 388.091 312.605, 395.369 317.455, 401.964 324.156 L 407.190 329.464 401.174 332.151 C 394.734 335.026, 392.691 337.494, 393.188 341.794 C 393.443 343.997, 397.510 347.551, 415.500 361.287 C 442.320 381.766, 441.869 381.499, 446.451 379.585 C 448.574 378.698, 450.154 377.230, 450.506 375.816 C 452.263 368.766, 457.733 318.429, 456.963 316.402 C 455.096 311.491, 450.712 310.911, 442.596 314.500 C 439.487 315.875, 436.754 317, 436.522 317 C 436.290 317, 434.015 314.076, 431.465 310.503 C 413.291 285.035, 380.596 271.481, 348.500 276.109 M 35 350 L 35 401 127.500 401 C 200.852 401, 219.993 400.741, 219.965 399.750 C 219.946 399.063, 219.274 395.575, 218.472 392 C 217.670 388.425, 216.735 379.650, 216.394 372.500 C 215.351 350.656, 219.310 328.440, 227.618 309.500 C 229.548 305.100, 231.372 300.938, 231.671 300.250 C 232.103 299.255, 212.116 299, 133.607 299 L 35 299 35 350 M 74.256 340.645 C 64.138 345.633, 63.996 363.185, 74.034 368.248 C 77.207 369.849, 82.097 369.997, 131.849 369.998 C 192.315 370, 190.889 370.151, 195.127 363.294 C 197.884 358.834, 198.056 350.595, 195.483 346.240 C 194.491 344.562, 192.003 342.246, 189.954 341.094 C 186.297 339.039, 185.212 339, 131.864 339.023 C 84.092 339.043, 77.107 339.239, 74.256 340.645 M 276.455 353.455 C 275.105 354.805, 273.997 356.492, 273.992 357.205 C 273.988 357.917, 272.428 370.813, 270.525 385.863 C 267.415 410.460, 267.212 413.508, 268.515 416.029 C 270.659 420.175, 274.524 420.627, 281.485 417.549 C 284.655 416.147, 287.755 415.001, 288.374 415.002 C 288.993 415.003, 290.848 417.140, 292.495 419.752 C 296.602 426.261, 307.202 436.783, 314.825 441.917 C 345.609 462.648, 388.443 460.997, 417.131 437.973 C 425.305 431.413, 434.573 420.638, 438.352 413.300 C 440.369 409.382, 440.483 402.831, 438.597 399.200 C 435.796 393.806, 427.314 389.654, 421.374 390.769 C 416.909 391.608, 414.252 393.789, 409.380 400.615 C 392.503 424.267, 363.272 431.757, 337.876 418.937 C 331.960 415.951, 319 404.722, 319 402.583 C 319 401.930, 321.258 400.583, 324.018 399.591 C 329.533 397.608, 332 394.937, 332 390.952 C 332 387.619, 331.623 387.285, 305.614 367.581 C 291.363 356.785, 282.887 351, 281.318 351 C 279.993 351, 277.805 352.105, 276.455 353.455" stroke="none" fill="#000000" fill-rule="evenodd"/></svg>